<?xml version="1.0" encoding="UTF-8" standalone="no"?>
<!-- Created with Inkscape (http://www.inkscape.org/) -->

<svg
   width="59.095718mm"
   height="56.757263mm"
   viewBox="0 0 59.095718 56.757263"
   version="1.1"
   id="svg1"
   inkscape:version="1.3.2 (091e20ef0f, 2023-11-25, custom)"
   sodipodi:docname="cond_prob.svg"
   xmlns:inkscape="http://www.inkscape.org/namespaces/inkscape"
   xmlns:sodipodi="http://sodipodi.sourceforge.net/DTD/sodipodi-0.dtd"
   xmlns="http://www.w3.org/2000/svg"
   xmlns:svg="http://www.w3.org/2000/svg">
  <sodipodi:namedview
     id="namedview1"
     pagecolor="#ffffff"
     bordercolor="#000000"
     borderopacity="0.25"
     inkscape:showpageshadow="2"
     inkscape:pageopacity="0.0"
     inkscape:pagecheckerboard="0"
     inkscape:deskcolor="#d1d1d1"
     inkscape:document-units="mm"
     inkscape:zoom="1.3581252"
     inkscape:cx="192.17669"
     inkscape:cy="140.2669"
     inkscape:window-width="1364"
     inkscape:window-height="745"
     inkscape:window-x="0"
     inkscape:window-y="21"
     inkscape:window-maximized="1"
     inkscape:current-layer="layer1" />
  <defs
     id="defs1" />
  <g
     inkscape:label="Layer 1"
     inkscape:groupmode="layer"
     id="layer1"
     transform="translate(-59.755748,-115.18245)">
    <path
       style="fill:none;stroke:#000000;stroke-width:0.529167"
       d="m 60.352807,144.76528 c -2.597761,9.85451 10.570665,12.0175 17.476576,15.02257 7.965405,3.4661 12.597008,13.4288 23.433327,11.68547 3.701,-0.59541 7.4019,-4.79351 9.9868,-7.22209 11.47934,-10.78516 8.14012,-16.91549 -0.76666,-28.81644 -3.36663,-4.49839 -6.22743,-8.14036 -11.18878,-10.96296 -6.886768,-3.91801 -14.916414,-7.71173 -22.826889,-9.00908 -3.553743,-0.58282 -13.760987,16.14717 -15.01606,20.33074 -1.33849,4.46163 5.32614,8.33591 -1.098314,8.97179 z"
       id="path1" />
    <path
       style="fill:none;stroke:#000000;stroke-width:0.529167"
       d="m 69.684727,141.4146 c -1.89765,4.95707 2.669548,6.6637 6.297628,8.73824 5.455227,3.1193 22.594308,1.91017 17.246738,-8.77274 -1.139394,-2.27618 -4.983115,-3.69742 -6.408542,-5.59799 -1.321705,-1.76227 0.226767,-4.64361 -1.55852,-6.4289 -7.520831,-7.52083 -15.820355,7.73094 -15.577304,12.06139 z"
       id="path2" />
    <path
       style="fill:none;stroke:#000000;stroke-width:0.529167"
       d="m 82.448317,147.10066 c -0.862658,3.5394 -0.107558,7.3755 3.703918,8.64599 11.0364,3.6788 28.449545,4.82876 18.074835,-10.7333 -2.07635,-3.11453 -0.24723,-7.6998 -4.09468,-10.14818 -8.906098,-5.66752 -16.86754,4.34962 -17.684073,12.23549 z"
       id="path3" />
    <text
       xml:space="preserve"
       style="font-size:4.23333px;fill:none;stroke:#000000;stroke-width:0.529167"
       x="71.366867"
       y="124.37547"
       id="text3"><tspan
         sodipodi:role="line"
         style="stroke-width:0.529167"
         x="71.366867"
         y="124.37547"
         id="tspan4">Omega</tspan></text>
    <text
       xml:space="preserve"
       style="font-size:4.23333px;fill:none;stroke:#000000;stroke-width:0.529167"
       x="76.665367"
       y="133.61459"
       id="text5"><tspan
         sodipodi:role="line"
         style="stroke-width:0.529167"
         x="76.665367"
         y="133.61459"
         id="tspan6">A</tspan></text>
    <text
       xml:space="preserve"
       style="font-size:4.23333px;fill:none;stroke:#000000;stroke-width:0.529167"
       x="96.625404"
       y="150.01016"
       id="text7"><tspan
         sodipodi:role="line"
         style="stroke-width:0.529167"
         x="96.625404"
         y="150.01016"
         id="tspan8">B</tspan></text>
  </g>
</svg>
