<?xml version="1.0" encoding="UTF-8" standalone="no"?>
<!-- Created with Inkscape (http://www.inkscape.org/) -->

<svg
   width="81.934357mm"
   height="94.271584mm"
   viewBox="0 0 81.934357 94.271584"
   version="1.1"
   id="svg1"
   inkscape:version="1.3.2 (091e20ef0f, 2023-11-25, custom)"
   sodipodi:docname="geom_prob.svg"
   xmlns:inkscape="http://www.inkscape.org/namespaces/inkscape"
   xmlns:sodipodi="http://sodipodi.sourceforge.net/DTD/sodipodi-0.dtd"
   xmlns="http://www.w3.org/2000/svg"
   xmlns:svg="http://www.w3.org/2000/svg">
  <sodipodi:namedview
     id="namedview1"
     pagecolor="#ffffff"
     bordercolor="#000000"
     borderopacity="0.25"
     inkscape:showpageshadow="2"
     inkscape:pageopacity="0.0"
     inkscape:pagecheckerboard="0"
     inkscape:deskcolor="#d1d1d1"
     inkscape:document-units="mm"
     inkscape:zoom="0.96033951"
     inkscape:cx="294.68745"
     inkscape:cy="203.57384"
     inkscape:window-width="1364"
     inkscape:window-height="745"
     inkscape:window-x="0"
     inkscape:window-y="21"
     inkscape:window-maximized="1"
     inkscape:current-layer="layer1" />
  <defs
     id="defs1" />
  <g
     inkscape:label="Layer 1"
     inkscape:groupmode="layer"
     id="layer1"
     transform="translate(-30.329888,-88.401132)">
    <path
       style="fill:none;stroke:#000000;stroke-width:0.529167"
       d="m 33.441817,131.30375 c 0.14411,3.49633 -2.239873,8.6749 -0.389631,12.06879 2.744743,5.03468 12.406106,6.52019 14.182267,11.84868 3.300987,9.90296 5.579282,16.99625 16.882473,22.58201 25.805505,12.75245 49.790424,-2.04119 47.762974,-31.2218 -0.47213,-6.79523 -6.87539,-12.60585 -7.80755,-19.13098 -1.80146,-12.61022 6.82605,-22.02085 -6.958505,-31.639878 -5.663773,-3.952248 -56.18114,-12.681149 -60.416537,-2.092733 -2.447684,6.119164 5.050714,10.870261 2.332863,16.305951 -3.555031,7.11007 -13.191661,13.05785 -5.588354,21.27996 z"
       id="path1" />
    <path
       style="fill:none;stroke:#000000;stroke-width:0.529167"
       d="m 55.937578,129.70782 c -3.280169,44.86727 46.557052,-9.61817 14.40185,-13.63757 -32.980717,-4.12259 7.068145,12.94212 -14.40185,13.63757 z"
       id="path2" />
    <text
       xml:space="preserve"
       style="font-size:4.23333px;fill:none;stroke:#000000;stroke-width:0.529167"
       x="60.244415"
       y="99.545296"
       id="text2"><tspan
         sodipodi:role="line"
         id="tspan2"
         style="stroke-width:0.529167"
         x="60.244415"
         y="99.545296">Omega</tspan></text>
    <text
       xml:space="preserve"
       style="font-size:4.23333px;fill:none;stroke:#000000;stroke-width:0.529167"
       x="66.587906"
       y="124.82795"
       id="text3"><tspan
         sodipodi:role="line"
         style="stroke-width:0.529167"
         x="66.587906"
         y="124.82795"
         id="tspan4">A</tspan></text>
  </g>
</svg>
