<?xml version="1.0" encoding="UTF-8"?>
<svg width="824.29" height="519.06" fill="none" stroke-linecap="square" stroke-miterlimit="10" version="1.1" viewBox="0 0 824.29 519.06" xmlns="http://www.w3.org/2000/svg">
 <clipPath id="p7.0">
  <path d="m0 0h1280v720h-1280z"/>
 </clipPath>
 <g transform="translate(-391.46 -146.64)" clip-path="url(#p7.0)">
  <g fill-rule="evenodd">
   <path d="m655.09 462.03c0-29.225 64.471-52.917 144-52.917s144 23.692 144 52.917c0 29.225-64.471 52.917-144 52.917s-144-23.692-144-52.917z" fill="#c5d8f1"/>
   <path d="m655.09 462.03c0-29.225 64.471-52.917 144-52.917s144 23.692 144 52.917c0 29.225-64.471 52.917-144 52.917s-144-23.692-144-52.917z" stroke="#000" stroke-linecap="butt" stroke-linejoin="round"/>
   <path d="m391.96 329.76c0-29.225 64.471-52.917 144-52.917 79.529 0 144 23.692 144 52.917 0 29.225-64.471 52.917-144 52.917-79.529 0-144-23.692-144-52.917z" fill="#c5d8f1"/>
   <path d="m391.96 329.76c0-29.225 64.471-52.917 144-52.917 79.529 0 144 23.692 144 52.917 0 29.225-64.471 52.917-144 52.917-79.529 0-144-23.692-144-52.917z" stroke="#000" stroke-linecap="butt" stroke-linejoin="round"/>
   <path d="m410.42 307.21h252.41v45.237h-252.41z" fill="#000" fill-opacity="0"/>
  </g>
  <path d="m470.44 331.76q0-4.2188 2.3594-6.25 1.9531-1.6875 4.7812-1.6875 3.125 0 5.1094 2.0625 2 2.0469 2 5.6719 0 2.9219-0.875 4.6094t-2.5625 2.625q-1.6875 0.92188-3.6719 0.92188-3.2031 0-5.1719-2.0469-1.9688-2.0469-1.9688-5.9062zm2.6562 0q0 2.9219 1.2656 4.375 1.2812 1.4531 3.2188 1.4531 1.9219 0 3.1875-1.4531 1.2812-1.4688 1.2812-4.4531 0-2.8281-1.2812-4.2812-1.2812-1.4531-3.1875-1.4531-1.9375 0-3.2188 1.4531-1.2656 1.4375-1.2656 4.3594zm23.481-7.5938v6.5625q1.2344 0 1.7344-0.46875t1.4688-2.75q0.89063-2.1562 1.6094-2.7656 0.70312-0.57813 2.2344-0.57813h0.95313v2.125l-0.70313-0.0156q-1.0312 0-1.3281 0.3125-0.29688 0.3125-0.90625 1.875-0.57813 1.4844-1.0625 2.0625-0.48438 0.5625-1.5156 1.0469 1.6719 0.4375 3.2656 3.0781l2.8281 4.7188h-2.8281l-2.7656-4.7188q-0.84375-1.4219-1.4844-1.8594-0.625-0.45312-1.5-0.45312v7.0312h-2.6406v-7.0312q-0.85937 0-1.4844 0.4375t-1.4688 1.875l-2.7656 4.7188h-2.8438l2.8281-4.7188q1.6094-2.6406 3.2812-3.0781-1.1406-0.53125-1.6094-1.1562-0.45312-0.625-1.375-2.9688-0.3125-0.79687-0.67187-0.98437-0.375-0.1875-1.0938-0.1875-0.1875 0-0.76563 0.0156v-2.125h0.35938q1.4844 0 2.0938 0.1875 0.60937 0.17188 1.0938 0.75 0.48437 0.57813 1.25 2.4062 0.95312 2.25 1.4375 2.7344 0.5 0.48437 1.7344 0.48437v-6.5625zm10.431 0h2.5781v11.594l7.1406-11.594h2.7812v15.203h-2.5781v-11.531l-7.1406 11.531h-2.7812zm18.414 0h10.594v13.078h1.6406v6.4375h-2.1094v-4.3125h-11.969v4.3125h-2.125v-6.4375h1.3594q2.7188-3.6875 2.6094-13.078zm2.1406 2.125q-0.28125 7.4062-2.2812 10.953h8.1719v-10.953zm22.863 11.203q-1.4375 1.2188-2.7656 1.7188-1.3125 0.5-2.8281 0.5-2.5156 0-3.8594-1.2188-1.3438-1.2344-1.3438-3.1406 0-1.1094 0.5-2.0312 0.51563-0.92187 1.3281-1.4844 0.82812-0.5625 1.8594-0.84375 0.76563-0.20313 2.2969-0.39063 3.125-0.375 4.5938-0.89062 0.0156-0.53125 0.0156-0.67188 0-1.5781-0.73437-2.2188-0.98438-0.875-2.9375-0.875-1.8125 0-2.6875 0.64063-0.85938 0.64062-1.2656 2.25l-2.5312-0.34375q0.34375-1.6094 1.125-2.6094 0.79688-1 2.2812-1.5312 1.5-0.53125 3.4531-0.53125 1.9531 0 3.1719 0.45313 1.2188 0.45312 1.7812 1.1562 0.57813 0.6875 0.8125 1.75 0.125 0.65625 0.125 2.375v3.4375q0 3.5938 0.15625 4.5469 0.17188 0.95313 0.65625 1.8281h-2.6875q-0.40625-0.79688-0.51562-1.875zm-0.21875-5.75q-1.4062 0.5625-4.2031 0.96875-1.5938 0.21875-2.25 0.51562-0.65625 0.28125-1.0156 0.84375-0.35938 0.54688-0.35938 1.2188 0 1.0312 0.78125 1.7188t2.2812 0.6875q1.4844 0 2.6406-0.65625 1.1719-0.65625 1.7188-1.7812 0.40625-0.875 0.40625-2.5781zm6.6234-7.5781h2.5781v6.3281h7.1406v-6.3281h2.5781v15.203h-2.5781v-6.75h-7.1406v6.75h-2.5781zm16.181 0h2.5781v11.594l7.1406-11.594h2.7812v15.203h-2.5781v-11.531l-7.1406 11.531h-2.7812zm26.789 10.312 2.6562 0.32813q-0.625 2.3281-2.3281 3.625-1.7031 1.2812-4.3594 1.2812-3.3281 0-5.2812-2.0469-1.9531-2.0625-1.9531-5.7656 0-3.8438 1.9688-5.9531 1.9844-2.125 5.125-2.125 3.0625 0 4.9844 2.0781 1.9375 2.0625 1.9375 5.8438 0 0.21875-0.0156 0.67187h-11.344q0.14062 2.5156 1.4219 3.8438 1.2812 1.3281 3.1719 1.3281 1.4219 0 2.4219-0.73438 1-0.75 1.5938-2.375zm-8.4688-4.1719h8.5q-0.17187-1.9219-0.96875-2.875-1.2344-1.5-3.2031-1.5-1.7656 0-2.9844 1.1875-1.2031 1.1875-1.3438 3.1875z" fill="#0c0910"/>
  <path d="m685.67 434.86h226.83v45.237h-226.83z" fill="#000" fill-opacity="0" fill-rule="evenodd"/>
  <path d="m720.47 451.82h2.5781v11.594l7.1406-11.594h2.7812v15.203h-2.5781v-11.531l-7.1406 11.531h-2.7812zm26.304 9.625 2.5312 0.34375q-0.40625 2.6094-2.125 4.0938-1.7188 1.4844-4.2031 1.4844-3.125 0-5.0312-2.0312-1.8906-2.0469-1.8906-5.8594 0-2.4688 0.8125-4.3125 0.82813-1.8438 2.4844-2.7656 1.6719-0.92187 3.6406-0.92187 2.4688 0 4.0469 1.25 1.5781 1.25 2.0312 3.5625l-2.5156 0.375q-0.35937-1.5312-1.2656-2.2969-0.90625-0.78125-2.2031-0.78125-1.9375 0-3.1562 1.4062-1.2188 1.3906-1.2188 4.4062 0 3.0781 1.1719 4.4688 1.1719 1.375 3.0625 1.375 1.5156 0 2.5312-0.92187 1.0156-0.9375 1.2969-2.875zm4.7578-9.625h12v15.203h-2.5781v-13.078h-6.8438v13.078h-2.5781zm14.897 7.5938q0-4.2188 2.3594-6.25 1.9531-1.6875 4.7812-1.6875 3.125 0 5.1094 2.0625 2 2.0469 2 5.6719 0 2.9219-0.875 4.6094t-2.5625 2.625q-1.6875 0.92187-3.6719 0.92187-3.2031 0-5.1719-2.0469-1.9688-2.0469-1.9688-5.9062zm2.6562 0q0 2.9219 1.2656 4.375 1.2812 1.4531 3.2188 1.4531 1.9219 0 3.1875-1.4531 1.2812-1.4688 1.2812-4.4531 0-2.8281-1.2812-4.2812-1.2812-1.4531-3.1875-1.4531-1.9375 0-3.2188 1.4531-1.2656 1.4375-1.2656 4.3594zm15.229-7.5938h11.984v15.203h-2.5625v-13.078h-6.8438v7.5781q0 2.6562-0.17187 3.5-0.17188 0.84375-0.95313 1.4688-0.76562 0.625-2.2188 0.625-0.90625 0-2.0781-0.10937v-2.1406h1.125q0.8125 0 1.1562-0.15625 0.34375-0.17187 0.45312-0.53125 0.10938-0.35937 0.10938-2.3438zm15.878 0h2.5781v6.3281h7.1406v-6.3281h2.5781v15.203h-2.5781v-6.75h-7.1406v6.75h-2.5781zm26.587 10.312 2.6562 0.32812q-0.625 2.3281-2.3281 3.625-1.7031 1.2812-4.3594 1.2812-3.3281 0-5.2812-2.0469-1.9531-2.0625-1.9531-5.7656 0-3.8438 1.9688-5.9531 1.9844-2.125 5.125-2.125 3.0625 0 4.9844 2.0781 1.9375 2.0625 1.9375 5.8438 0 0.21875-0.0156 0.67188h-11.344q0.14062 2.5156 1.4219 3.8438 1.2812 1.3281 3.1719 1.3281 1.4219 0 2.4219-0.73437 1-0.75 1.5938-2.375zm-8.4688-4.1719h8.5q-0.17187-1.9219-0.96875-2.875-1.2344-1.5-3.2031-1.5-1.7656 0-2.9844 1.1875-1.2031 1.1875-1.3438 3.1875zm14.389-6.1406h2.5781v6.3281h7.1406v-6.3281h2.5781v15.203h-2.5781v-6.75h-7.1406v6.75h-2.5781zm16.181 0h2.5781v11.594l7.1406-11.594h2.7812v15.203h-2.5781v-11.531l-7.1406 11.531h-2.7812zm26.789 10.312 2.6562 0.32812q-0.625 2.3281-2.3281 3.625-1.7031 1.2812-4.3594 1.2812-3.3281 0-5.2812-2.0469-1.9531-2.0625-1.9531-5.7656 0-3.8438 1.9688-5.9531 1.9844-2.125 5.125-2.125 3.0625 0 4.9844 2.0781 1.9375 2.0625 1.9375 5.8438 0 0.21875-0.0156 0.67188h-11.344q0.14062 2.5156 1.4219 3.8438 1.2812 1.3281 3.1719 1.3281 1.4219 0 2.4219-0.73437 1-0.75 1.5938-2.375zm-8.4688-4.1719h8.5q-0.17187-1.9219-0.96875-2.875-1.2344-1.5-3.2031-1.5-1.7656 0-2.9844 1.1875-1.2031 1.1875-1.3438 3.1875z" fill="#0c0910"/>
  <path d="m700.84 556.53h196.67v45.237h-196.67z" fill="#000" fill-opacity="0" fill-rule="evenodd"/>
  <path d="m759.24 573.48h5.9375q2.1875 0 3.25 0.35938 1.0781 0.35937 1.8438 1.3438 0.76562 0.96875 0.76562 2.3281 0 1.0938-0.45312 1.9062-0.45313 0.79688-1.3594 1.3438 1.0781 0.35938 1.7812 1.3438 0.71875 0.98438 0.71875 2.3281-0.14062 2.1562-1.5469 3.2031-1.4062 1.0469-4.0781 1.0469h-6.8594zm2.5781 6.3906h2.75q1.6406 0 2.25-0.17188 0.625-0.17187 1.1094-0.6875 0.48437-0.53125 0.48437-1.25 0-1.2031-0.85937-1.6719-0.84375-0.48438-2.9062-0.48438h-2.8281zm0 6.6875h3.3906q2.1875 0 3-0.5 0.82812-0.51563 0.85937-1.75 0-0.73438-0.46875-1.3594t-1.2344-0.78125q-0.75-0.17187-2.4375-0.17187h-3.1094zm27.456-13.078h2.5781v15.203h-2.5781zm-14.422 0h2.5781v5.9375h3.2656q3.2031 0 4.9219 1.25 1.7344 1.2344 1.7344 3.4062 0 1.9062-1.4531 3.2656-1.4375 1.3438-4.5938 1.3438h-6.4531zm2.5781 13.078h2.7188q2.4375 0 3.4844-0.59375 1.0469-0.60938 1.0469-1.875 0-0.98438-0.78125-1.75-0.76562-0.78125-3.4062-0.78125h-3.0625zm16.736 2.125 5.5469-7.9062-5.1406-7.2969h3.2344l2.3281 3.5625q0.65625 1.0156 1.0625 1.7031 0.625-0.95313 1.1562-1.6719l2.5625-3.5938h3.0781l-5.25 7.1562 5.6562 8.0469h-3.1719l-3.125-4.7188-0.82812-1.2812-3.9844 6zm15.085-7.6094q0-4.2188 2.3594-6.25 1.9531-1.6875 4.7812-1.6875 3.125 0 5.1094 2.0625 2 2.0469 2 5.6719 0 2.9219-0.875 4.6094t-2.5625 2.625q-1.6875 0.92188-3.6719 0.92188-3.2031 0-5.1719-2.0469-1.9688-2.0469-1.9688-5.9062zm2.6562 0q0 2.9219 1.2656 4.375 1.2812 1.4531 3.2188 1.4531 1.9219 0 3.1875-1.4531 1.2812-1.4688 1.2812-4.4531 0-2.8281-1.2812-4.2812-1.2812-1.4531-3.1875-1.4531-1.9375 0-3.2188 1.4531-1.2656 1.4375-1.2656 4.3594zm16.01-7.5938h10.594v13.078h1.6406v6.4375h-2.1094v-4.3125h-11.969v4.3125h-2.125v-6.4375h1.3594q2.7188-3.6875 2.6094-13.078zm2.1406 2.125q-0.28125 7.4062-2.2812 10.953h8.1719v-10.953z" fill="#0c0910"/>
  <path d="m700.84 148.32h196.67v45.237h-196.67z" fill="#000" fill-opacity="0" fill-rule="evenodd"/>
  <path d="m769.78 165.28h5.9375q2.1875 0 3.25 0.35937 1.0781 0.35938 1.8438 1.3438 0.76562 0.96875 0.76562 2.3281 0 1.0938-0.45312 1.9062-0.45313 0.79687-1.3594 1.3438 1.0781 0.35937 1.7812 1.3438 0.71875 0.98437 0.71875 2.3281-0.14062 2.1562-1.5469 3.2031-1.4062 1.0469-4.0781 1.0469h-6.8594zm2.5781 6.3906h2.75q1.6406 0 2.25-0.17187 0.625-0.17188 1.1094-0.6875 0.48437-0.53125 0.48437-1.25 0-1.2031-0.85937-1.6719-0.84375-0.48437-2.9062-0.48437h-2.8281zm0 6.6875h3.3906q2.1875 0 3-0.5 0.82812-0.51562 0.85937-1.75 0-0.73437-0.46875-1.3594t-1.2344-0.78125q-0.75-0.17188-2.4375-0.17188h-3.1094zm11.268 2.125 5.5469-7.9062-5.1406-7.2969h3.2344l2.3281 3.5625q0.65625 1.0156 1.0625 1.7031 0.625-0.95312 1.1562-1.6719l2.5625-3.5938h3.0781l-5.25 7.1562 5.6562 8.0469h-3.1719l-3.125-4.7188-0.82812-1.2812-3.9844 6zm15.085-7.6094q0-4.2188 2.3594-6.25 1.9531-1.6875 4.7812-1.6875 3.125 0 5.1094 2.0625 2 2.0469 2 5.6719 0 2.9219-0.875 4.6094t-2.5625 2.625q-1.6875 0.92187-3.6719 0.92187-3.2031 0-5.1719-2.0469-1.9688-2.0469-1.9688-5.9062zm2.6562 0q0 2.9219 1.2656 4.375 1.2812 1.4531 3.2188 1.4531 1.9219 0 3.1875-1.4531 1.2812-1.4688 1.2812-4.4531 0-2.8281-1.2812-4.2812-1.2812-1.4531-3.1875-1.4531-1.9375 0-3.2188 1.4531-1.2656 1.4375-1.2656 4.3594zm16.01-7.5938h10.594v13.078h1.6406v6.4375h-2.1094v-4.3125h-11.969v4.3125h-2.125v-6.4375h1.3594q2.7188-3.6875 2.6094-13.078zm2.1406 2.125q-0.28125 7.4062-2.2812 10.953h8.1719v-10.953z" fill="#0c0910"/>
  <g fill-rule="evenodd">
   <path d="m927.24 329.76c0-29.225 64.471-52.917 144-52.917 79.529 0 144 23.692 144 52.917 0 29.225-64.471 52.917-144 52.917-79.529 0-144-23.692-144-52.917z" fill="#c5d8f1"/>
   <path d="m927.24 329.76c0-29.225 64.471-52.917 144-52.917 79.529 0 144 23.692 144 52.917 0 29.225-64.471 52.917-144 52.917-79.529 0-144-23.692-144-52.917z" stroke="#000" stroke-linecap="butt" stroke-linejoin="round"/>
   <path d="m945.7 299.64h252.41v45.237h-252.41z" fill="#000" fill-opacity="0"/>
  </g>
  <path d="m1000.6 316.6h8.75v2.125h-6.1719v13.078h-2.5781zm9.0684 7.5938q0-4.2188 2.3593-6.25 1.9532-1.6875 4.7813-1.6875 3.125 0 5.1094 2.0625 2 2.0469 2 5.6719 0 2.9219-0.875 4.6094t-2.5625 2.625q-1.6875 0.92187-3.6719 0.92187-3.2031 0-5.1719-2.0469-1.9687-2.0469-1.9687-5.9062zm2.6562 0q0 2.9219 1.2656 4.375 1.2813 1.4531 3.2188 1.4531 1.9219 0 3.1875-1.4531 1.2812-1.4688 1.2812-4.4531 0-2.8281-1.2812-4.2812-1.2813-1.4531-3.1875-1.4531-1.9375 0-3.2188 1.4531-1.2656 1.4375-1.2656 4.3594zm12.588-7.5938h12.359v2.125h-4.9063v13.078h-2.5625v-13.078h-4.8906zm13.525 7.5938q0-4.2188 2.3594-6.25 1.9531-1.6875 4.7813-1.6875 3.125 0 5.1093 2.0625 2 2.0469 2 5.6719 0 2.9219-0.875 4.6094t-2.5625 2.625q-1.6875 0.92187-3.6718 0.92187-3.2032 0-5.1719-2.0469-1.9688-2.0469-1.9688-5.9062zm2.6563 0q0 2.9219 1.2656 4.375 1.2813 1.4531 3.2188 1.4531 1.9218 0 3.1875-1.4531 1.2812-1.4688 1.2812-4.4531 0-2.8281-1.2812-4.2812-1.2813-1.4531-3.1875-1.4531-1.9375 0-3.2188 1.4531-1.2656 1.4375-1.2656 4.3594zm14.639-7.5938h5.9375q2.1875 0 3.25 0.35937 1.0782 0.35938 1.8438 1.3438 0.7656 0.96875 0.7656 2.3281 0 1.0938-0.4531 1.9062-0.4531 0.79687-1.3594 1.3438 1.0781 0.35937 1.7813 1.3438 0.7187 0.98437 0.7187 2.3281-0.1406 2.1562-1.5469 3.2031-1.4062 1.0469-4.0781 1.0469h-6.8594zm2.5782 6.3906h2.75q1.6406 0 2.25-0.17187 0.625-0.17188 1.1093-0.6875 0.4844-0.53125 0.4844-1.25 0-1.2031-0.8594-1.6719-0.8437-0.48437-2.9062-0.48437h-2.8281zm0 6.6875h3.3906q2.1875 0 3-0.5 0.8281-0.51562 0.8594-1.75 0-0.73437-0.4688-1.3594-0.4687-0.625-1.2344-0.78125-0.75-0.17188-2.4375-0.17188h-3.1093zm13.002-13.078h2.5781v6.3281h7.1406v-6.3281h2.5782v15.203h-2.5782v-6.75h-7.1406v6.75h-2.5781zm15.212 7.5938q0-4.2188 2.3594-6.25 1.9531-1.6875 4.7812-1.6875 3.125 0 5.1094 2.0625 2 2.0469 2 5.6719 0 2.9219-0.875 4.6094t-2.5625 2.625q-1.6875 0.92187-3.6719 0.92187-3.2031 0-5.1718-2.0469-1.9688-2.0469-1.9688-5.9062zm2.6563 0q0 2.9219 1.2656 4.375 1.2812 1.4531 3.2187 1.4531 1.9219 0 3.1875-1.4531 1.2813-1.4688 1.2813-4.4531 0-2.8281-1.2813-4.2812-1.2812-1.4531-3.1875-1.4531-1.9375 0-3.2187 1.4531-1.2656 1.4375-1.2656 4.3594zm24.545 2.0312 2.5313 0.34375q-0.4063 2.6094-2.125 4.0938-1.7188 1.4844-4.2031 1.4844-3.125 0-5.0313-2.0312-1.8906-2.0469-1.8906-5.8594 0-2.4688 0.8125-4.3125 0.8281-1.8438 2.4844-2.7656 1.6718-0.92187 3.6406-0.92187 2.4687 0 4.0469 1.25 1.5781 1.25 2.0312 3.5625l-2.5156 0.375q-0.3594-1.5312-1.2656-2.2969-0.9063-0.78125-2.2032-0.78125-1.9375 0-3.1562 1.4062-1.2188 1.3906-1.2188 4.4062 0 3.0781 1.1719 4.4688 1.1719 1.375 3.0625 1.375 1.5156 0 2.5313-0.92187 1.0156-0.9375 1.2968-2.875zm3.3516-9.625h12.359v2.125h-4.9063v13.078h-2.5625v-13.078h-4.8906zm14.776 0h2.5781v5.9375h3.2656q3.1875 0 4.9063 1.25 1.7343 1.2344 1.7343 3.4062 0 1.9062-1.4375 3.2656-1.4375 1.3438-4.6093 1.3438h-6.4375zm2.5781 13.078h2.7031q2.4531 0 3.5-0.59375 1.0469-0.60937 1.0469-1.875 0-0.98437-0.7813-1.75-0.7656-0.78125-3.4218-0.78125h-3.0469z" fill="#0c0910"/>
  <g fill-rule="evenodd">
   <path d="m828.96 186.12 151.2 103.68" fill="#000" fill-opacity="0"/>
   <path d="m828.96 186.12 146.25 100.29" stroke="#000" stroke-linecap="butt" stroke-linejoin="round"/>
   <path d="m974.28 287.77 4.6768 1.2042-2.8085-3.9286z" fill="#000" stroke="#000" stroke-linecap="butt"/>
   <path d="m1035.1 380.53-96 69.12" fill="#000" fill-opacity="0"/>
   <path d="m1035.1 380.53-91.131 65.614" stroke="#000" stroke-linecap="butt" stroke-linejoin="round"/>
   <path d="m943.04 444.8-2.7177 3.9921 4.648-1.3112z" fill="#000" stroke="#000" stroke-linecap="butt"/>
  </g>
  <path d="m995.53 413.47h5.4062q1.9844 0 2.9532 0.34375 0.9843 0.32812 1.6718 1.2188 0.7032 0.875 0.7032 2.1094 0 1-0.4219 1.7344-0.4063 0.73437-1.2188 1.2188 0.9688 0.32812 1.6094 1.2188 0.6563 0.89062 0.6563 2.125-0.1407 1.9531-1.4219 2.9062-1.2656 0.95312-3.7031 0.95312h-6.2344zm2.3438 5.8281h2.5q1.5 0 2.0625-0.15625t1-0.625q0.4375-0.48437 0.4375-1.1562 0-1.0938-0.7812-1.5156-0.7656-0.4375-2.6406-0.4375h-2.5782zm0 6.0781h3.0938q1.9844 0 2.7187-0.45313 0.75-0.46875 0.7969-1.6094 0-0.65625-0.4375-1.2188-0.4219-0.57813-1.125-0.71875-0.6875-0.15625-2.2031-0.15625h-2.8438zm24.974-11.906h2.3437v13.828h-2.3437zm-13.109 0h2.3438v5.4062h2.9687q2.8906 0 4.4531 1.125 1.5782 1.125 1.5782 3.1094 0 1.7344-1.3125 2.9688-1.2969 1.2188-4.1719 1.2188h-5.8594zm2.3438 11.906h2.4531q2.2344 0 3.1719-0.54688 0.9531-0.54687 0.9531-1.7031 0-0.90625-0.7031-1.6094-0.7032-0.70312-3.1094-0.70312h-2.7656zm26.894-17.609 2.0625 0.0156q-0.1407 1.3906-0.625 1.9375-0.4688 0.54687-1.2188 0.70312t-2.9375 0.15625q-2.8906 0-3.9531 0.5625-1.0469 0.5625-1.5156 1.7969-0.4688 1.2188-0.5157 3.1719 0.8907-1.3281 2.0625-1.9844 1.1875-0.65625 2.6719-0.65625 2.7188 0 4.5 1.875 1.7969 1.8594 1.7969 5.0625 0 2.4062-0.9063 3.9688-0.8906 1.5469-2.125 2.3906-1.2343 0.84375-3.3593 0.84375-2.4532 0-3.8282-1.125-1.3593-1.125-2.0937-2.875-0.7188-1.7656-0.7188-6.125 0-5.4844 1.8438-7.375 1.8594-1.9062 5.7187-1.9062 2.3907 0 2.7188-0.0781t0.4219-0.35938zm-0.125 12.562q0-2.1562-1.0313-3.5312-1.0156-1.3906-2.875-1.3906-1.9375 0-3 1.4688-1.0469 1.4531-1.0469 3.8906 0 2.4062 1.1563 3.6875 1.1719 1.2656 2.875 1.2656 1.75 0 2.8281-1.4688 1.0938-1.4844 1.0938-3.9219zm5.2518 12.266v-19.125h2.1406v1.7969q0.75-1.0469 1.7031-1.5781 0.9532-0.53125 2.3125-0.53125 1.7657 0 3.1094 0.92187 1.3594 0.90625 2.0469 2.5625t0.6875 3.6406q0 2.125-0.7656 3.8281-0.75 1.6875-2.2032 2.5938-1.4531 0.90625-3.0468 0.90625-1.1719 0-2.1094-0.48437-0.9219-0.5-1.5313-1.2656v6.7344zm2.125-12.125q0 2.6562 1.0781 3.9375 1.0938 1.2812 2.625 1.2812 1.5625 0 2.6719-1.3125 1.1094-1.3281 1.1094-4.1094 0-2.6406-1.0938-3.9531-1.0781-1.3125-2.5937-1.3125-1.4844 0-2.6407 1.4062-1.1562 1.3906-1.1562 4.0625zm21.731 5.125q-1.3125 1.1094-2.5156 1.5625-1.2032 0.45312-2.5782 0.45312-2.2812 0-3.5-1.1094-1.2187-1.1094-1.2187-2.8438 0-1.0156 0.4531-1.8594 0.4688-0.84375 1.2188-1.3438 0.75-0.51562 1.6875-0.76562 0.6875-0.1875 2.0781-0.35938 2.8281-0.32812 4.1719-0.79687 0.016-0.48438 0.016-0.625 0-1.4219-0.6563-2.0156-0.9062-0.79687-2.6718-0.79687-1.6563 0-2.4532 0.59375-0.7812 0.57812-1.1562 2.0469l-2.2969-0.3125q0.3125-1.4688 1.0313-2.375 0.7187-0.90625 2.0625-1.3906 1.3593-0.5 3.1406-0.5 1.7812 0 2.875 0.42187 1.1094 0.42188 1.625 1.0469 0.5312 0.625 0.7344 1.5938 0.125 0.59375 0.125 2.1562v3.125q0 3.2656 0.1406 4.1406 0.1562 0.85938 0.5937 1.6562h-2.4375q-0.375-0.73437-0.4687-1.7031zm-0.2031-5.2344q-1.2657 0.51563-3.8282 0.89063-1.4375 0.20312-2.0468 0.46875-0.5938 0.25-0.9219 0.75-0.3125 0.5-0.3125 1.125 0 0.9375 0.7031 1.5625t2.0781 0.625q1.3438 0 2.3907-0.59375 1.0625-0.59375 1.5625-1.625 0.375-0.79688 0.375-2.3438zm6.0124-6.8906h2.3438v5.7656h6.5v-5.7656h2.3437v13.828h-2.3437v-6.125h-6.5v6.125h-2.3438zm23.971 0h9.625v11.906h1.5v5.8438h-1.9219v-3.9219h-10.891v3.9219h-1.9219v-5.8438h1.2344q2.4687-3.3594 2.375-11.906zm1.9531 1.9375q-0.2656 6.7344-2.0937 9.9688h7.4375v-9.9688zm12.898-1.9375h10.875v13.828h-2.3281v-11.891h-6.2032v6.8906q0 2.4062-0.1562 3.1875-0.1563 0.76563-0.8594 1.3438-0.7031 0.5625-2.0312 0.5625-0.8282 0-1.8907-0.10937v-1.9531h1.0313q0.7187 0 1.0312-0.14062 0.3125-0.15625 0.4219-0.48438 0.1094-0.32812 0.1094-2.125zm25.288 0v13.828h-2.3281v-5.3906h-1.3594q-1.2344 0-1.8438 0.32812-0.5937 0.3125-1.7656 2.0469l-2.0312 3.0156h-2.9063l2.5156-3.7188q1.1719-1.7031 2.3125-1.9375-2-0.26562-2.9843-1.4375-0.9688-1.1719-0.9688-2.6875 0-1.7969 1.2656-2.9219 1.2813-1.125 3.6875-1.125zm-2.3281 1.9375h-3.3438q-2.0937 0-2.7031 0.65625-0.5938 0.65625-0.5938 1.5312 0 1.2344 0.8907 1.8125 0.8906 0.57812 3.1562 0.57812h2.5938z" fill="#0c0910"/>
  <path d="m995.52 445.47h2.3438v10.547l6.5-10.547h2.5312v13.828h-2.3437v-10.484l-6.5 10.484h-2.5312zm23.921 8.7656 2.2968 0.29688q-0.375 2.3906-1.9375 3.7344-1.5468 1.3438-3.8125 1.3438-2.8437 0-4.5625-1.8438-1.7187-1.8594-1.7187-5.3281 0-2.2344 0.7344-3.9062 0.75-1.6875 2.2656-2.5312t3.2969-0.84375q2.25 0 3.6718 1.1406 1.4375 1.1406 1.8438 3.2344l-2.2813 0.35937q-0.3281-1.3906-1.1562-2.0938-0.8125-0.70312-1.9844-0.70312-1.7812 0-2.8906 1.2656-1.0938 1.2656-1.0938 4.0156 0 2.7812 1.0625 4.0469 1.0625 1.2656 2.7813 1.2656 1.3906 0 2.3125-0.84375 0.9219-0.85938 1.1719-2.6094zm4.3125-8.7656h10.906v13.828h-2.3438v-11.891h-6.2187v11.891h-2.3437zm13.559 6.9219q0-3.8438 2.125-5.6875 1.7812-1.5469 4.3437-1.5469 2.8594 0 4.6563 1.875 1.8125 1.8594 1.8125 5.1562 0 2.6719-0.7969 4.2031t-2.3281 2.375q-1.5313 0.84375-3.3438 0.84375-2.8906 0-4.6875-1.8594-1.7812-1.8594-1.7812-5.3594zm2.4062 0q0 2.6562 1.1563 3.9844 1.1562 1.3125 2.9062 1.3125t2.9063-1.3281q1.1562-1.3281 1.1562-4.0469 0-2.5625-1.1719-3.8906-1.1562-1.3281-2.8906-1.3281-1.75 0-2.9062 1.3281-1.1563 1.3125-1.1563 3.9688zm13.848-6.9219h10.875v13.828h-2.3281v-11.891h-6.2032v6.8906q0 2.4062-0.1562 3.1875-0.1563 0.76563-0.8594 1.3438-0.7031 0.5625-2.0312 0.5625-0.8282 0-1.8907-0.10937v-1.9531h1.0313q0.7187 0 1.0312-0.14062 0.3125-0.15625 0.4219-0.48438 0.1094-0.32812 0.1094-2.125zm14.413 0h2.3437v5.7656h6.5v-5.7656h2.3438v13.828h-2.3438v-6.125h-6.5v6.125h-2.3437zm24.174 9.375 2.4219 0.29687q-0.5781 2.125-2.125 3.2969-1.5469 1.1719-3.9531 1.1719-3.0313 0-4.8125-1.8594-1.7813-1.875-1.7813-5.25 0-3.4844 1.7969-5.4062 1.7969-1.9375 4.6719-1.9375 2.7656 0 4.5156 1.8906 1.7656 1.8906 1.7656 5.3125 0 0.20313-0.016 0.625h-10.312q0.1406 2.2812 1.2969 3.5 1.1562 1.2031 2.8906 1.2031 1.2813 0 2.1875-0.67188 0.9219-0.6875 1.4531-2.1719zm-7.6875-3.7812h7.7188q-0.1563-1.75-0.8906-2.625-1.125-1.3438-2.9063-1.3438-1.6094 0-2.7187 1.0781-1.0938 1.0781-1.2032 2.8906zm13.059-5.5938h2.3437v5.7656h6.5v-5.7656h2.3438v13.828h-2.3438v-6.125h-6.5v6.125h-2.3437zm14.705 0h2.3437v10.547l6.5-10.547h2.5313v13.828h-2.3438v-10.484l-6.5 10.484h-2.5312zm25.781 0v13.828h-2.3281v-5.3906h-1.3594q-1.2344 0-1.8437 0.32812-0.5938 0.3125-1.7657 2.0469l-2.0312 3.0156h-2.9063l2.5157-3.7188q1.1718-1.7031 2.3125-1.9375-2-0.26562-2.9844-1.4375-0.9688-1.1719-0.9688-2.6875 0-1.7969 1.2657-2.9219 1.2812-1.125 3.6875-1.125zm-2.3281 1.9375h-3.3438q-2.0937 0-2.7031 0.65625-0.5937 0.65625-0.5937 1.5312 0 1.2344 0.8906 1.8125 0.8906 0.57812 3.1562 0.57812h2.5938z" fill="#0c0910"/>
  <g fill-rule="evenodd">
   <path d="m856.16 412.91 86.929-60.472" fill="#000" fill-opacity="0"/>
   <path d="m856.16 412.91 82.004-57.046" stroke="#000" stroke-linecap="butt" stroke-linejoin="round"/>
   <path d="m939.1 357.22 2.7821-3.9474-4.6686 1.2356z" fill="#000" stroke="#000" stroke-linecap="butt"/>
   <path d="m724.65 350.41h184.1v42.006h-184.1z" fill="#000" fill-opacity="0"/>
  </g>
  <path d="m750.32 366.19h10.906v13.828h-2.3438v-11.891h-6.2188v11.891h-2.3438zm14.419 19.125v-19.125h2.1406v1.7969q0.75-1.0469 1.7031-1.5781 0.95313-0.53125 2.3125-0.53125 1.7656 0 3.1094 0.92187 1.3594 0.90625 2.0469 2.5625t0.6875 3.6406q0 2.125-0.76562 3.8281-0.75 1.6875-2.2031 2.5938-1.4531 0.90625-3.0469 0.90625-1.1719 0-2.1094-0.48437-0.92187-0.5-1.5312-1.2656v6.7344zm2.125-12.125q0 2.6562 1.0781 3.9375 1.0938 1.2812 2.625 1.2812 1.5625 0 2.6719-1.3125 1.1094-1.3281 1.1094-4.1094 0-2.6406-1.0938-3.9531-1.0781-1.3125-2.5938-1.3125-1.4844 0-2.6406 1.4062-1.1562 1.3906-1.1562 4.0625zm22.169 2.375 2.4219 0.29687q-0.57813 2.125-2.125 3.2969-1.5469 1.1719-3.9531 1.1719-3.0312 0-4.8125-1.8594-1.7812-1.875-1.7812-5.25 0-3.4844 1.7969-5.4062 1.7969-1.9375 4.6719-1.9375 2.7656 0 4.5156 1.8906 1.7656 1.8906 1.7656 5.3125 0 0.20313-0.0156 0.625h-10.312q0.14062 2.2812 1.2969 3.5 1.1562 1.2031 2.8906 1.2031 1.2812 0 2.1875-0.67188 0.92187-0.6875 1.4531-2.1719zm-7.6875-3.7812h7.7188q-0.15625-1.75-0.89062-2.625-1.125-1.3438-2.9062-1.3438-1.6094 0-2.7188 1.0781-1.0938 1.0781-1.2031 2.8906zm13.044 13.531v-19.125h2.1406v1.7969q0.75-1.0469 1.7031-1.5781 0.95313-0.53125 2.3125-0.53125 1.7656 0 3.1094 0.92187 1.3594 0.90625 2.0469 2.5625t0.6875 3.6406q0 2.125-0.76562 3.8281-0.75 1.6875-2.2031 2.5938-1.4531 0.90625-3.0469 0.90625-1.1719 0-2.1094-0.48437-0.92187-0.5-1.5312-1.2656v6.7344zm2.125-12.125q0 2.6562 1.0781 3.9375 1.0938 1.2812 2.625 1.2812 1.5625 0 2.6719-1.3125 1.1094-1.3281 1.1094-4.1094 0-2.6406-1.0938-3.9531-1.0781-1.3125-2.5938-1.3125-1.4844 0-2.6406 1.4062-1.1562 1.3906-1.1562 4.0625zm25.872-7h2.3438v13.828h-2.3438zm-13.109 0h2.3438v5.4062h2.9688q2.8906 0 4.4531 1.125 1.5781 1.125 1.5781 3.1094 0 1.7344-1.3125 2.9688-1.2969 1.2188-4.1719 1.2188h-5.8594zm2.3438 11.906h2.4531q2.2344 0 3.1719-0.54688 0.95313-0.54687 0.95313-1.7031 0-0.90625-0.70313-1.6094-0.70312-0.70312-3.1094-0.70312h-2.7656zm16.769-11.906h5.4062q1.9844 0 2.9531 0.34375 0.98438 0.32812 1.6719 1.2188 0.70312 0.875 0.70312 2.1094 0 1-0.42187 1.7344-0.40625 0.73437-1.2188 1.2188 0.96875 0.32812 1.6094 1.2188 0.65625 0.89062 0.65625 2.125-0.14062 1.9531-1.4219 2.9062-1.2656 0.95312-3.7031 0.95312h-6.2344zm2.3438 5.8281h2.5q1.5 0 2.0625-0.15625t1-0.625q0.4375-0.48437 0.4375-1.1562 0-1.0938-0.78125-1.5156-0.76563-0.4375-2.6406-0.4375h-2.5781zm0 6.0781h3.0938q1.9844 0 2.7188-0.45313 0.75-0.46875 0.79687-1.6094 0-0.65625-0.4375-1.2188-0.42187-0.57813-1.125-0.71875-0.6875-0.15625-2.2031-0.15625h-2.8438zm20.534 0.21875q-1.3125 1.1094-2.5156 1.5625-1.2031 0.45312-2.5781 0.45312-2.2812 0-3.5-1.1094-1.2188-1.1094-1.2188-2.8438 0-1.0156 0.45313-1.8594 0.46875-0.84375 1.2188-1.3438 0.75-0.51562 1.6875-0.76562 0.6875-0.1875 2.0781-0.35938 2.8281-0.32812 4.1719-0.79687 0.0156-0.48438 0.0156-0.625 0-1.4219-0.65625-2.0156-0.90625-0.79687-2.6719-0.79687-1.6562 0-2.4531 0.59375-0.78125 0.57812-1.1562 2.0469l-2.2969-0.3125q0.3125-1.4688 1.0312-2.375t2.0625-1.3906q1.3594-0.5 3.1406-0.5t2.875 0.42187q1.1094 0.42188 1.625 1.0469 0.53125 0.625 0.73438 1.5938 0.125 0.59375 0.125 2.1562v3.125q0 3.2656 0.14062 4.1406 0.15625 0.85938 0.59375 1.6562h-2.4375q-0.375-0.73437-0.46875-1.7031zm-0.20312-5.2344q-1.2656 0.51563-3.8281 0.89063-1.4375 0.20312-2.0469 0.46875-0.59375 0.25-0.92188 0.75-0.3125 0.5-0.3125 1.125 0 0.9375 0.70313 1.5625 0.70312 0.625 2.0781 0.625 1.3438 0 2.3906-0.59375 1.0625-0.59375 1.5625-1.625 0.375-0.79688 0.375-2.3438zm6.0124-6.8906h2.3438v5.7656h6.5v-5.7656h2.3438v13.828h-2.3438v-6.125h-6.5v6.125h-2.3438zm14.705 0h2.3438v10.547l6.5-10.547h2.5312v13.828h-2.3438v-10.484l-6.5 10.484h-2.5312zm24.359 9.375 2.4219 0.29687q-0.57812 2.125-2.125 3.2969-1.5469 1.1719-3.9531 1.1719-3.0312 0-4.8125-1.8594-1.7812-1.875-1.7812-5.25 0-3.4844 1.7969-5.4062 1.7969-1.9375 4.6719-1.9375 2.7656 0 4.5156 1.8906 1.7656 1.8906 1.7656 5.3125 0 0.20313-0.0156 0.625h-10.312q0.14063 2.2812 1.2969 3.5 1.1562 1.2031 2.8906 1.2031 1.2812 0 2.1875-0.67188 0.92188-0.6875 1.4531-2.1719zm-7.6875-3.7812h7.7188q-0.15625-1.75-0.89063-2.625-1.125-1.3438-2.9062-1.3438-1.6094 0-2.7188 1.0781-1.0938 1.0781-1.2031 2.8906z" fill="#0c0910"/>
  <g fill-rule="evenodd">
   <path d="m799.17 515.52v45.333" fill="#000" fill-opacity="0"/>
   <path d="m799.17 515.52v39.333" stroke="#000" stroke-linecap="butt" stroke-linejoin="round"/>
   <path d="m797.52 554.85 1.6517 4.5381 1.6517-4.5381z" fill="#000" stroke="#000" stroke-linecap="butt"/>
   <path d="m741.29 412.76-103.83-45.238" fill="#000" fill-opacity="0"/>
   <path d="m741.29 412.76-98.327-42.841" stroke="#000" stroke-linecap="butt" stroke-linejoin="round"/>
   <path d="m643.62 368.41-4.8201-0.29843 3.5006 3.3269z" fill="#000" stroke="#000" stroke-linecap="butt"/>
   <path d="m426.8 381.39h272v42.006h-272z" fill="#000" fill-opacity="0"/>
  </g>
  <path d="m456.81 404.08q0-3.8438 2.125-5.6875 1.7812-1.5469 4.3438-1.5469 2.8594 0 4.6562 1.875 1.8125 1.8594 1.8125 5.1562 0 2.6719-0.79687 4.2031-0.79688 1.5312-2.3281 2.375t-3.3438 0.84375q-2.8906 0-4.6875-1.8594-1.7812-1.8594-1.7812-5.3594zm2.4062 0q0 2.6562 1.1562 3.9844 1.1562 1.3125 2.9062 1.3125t2.9062-1.3281q1.1562-1.3281 1.1562-4.0469 0-2.5625-1.1719-3.8906-1.1562-1.3281-2.8906-1.3281-1.75 0-2.9062 1.3281-1.1562 1.3125-1.1562 3.9688zm21.338-6.9219v5.9844q1.125 0 1.5781-0.42188 0.45312-0.4375 1.3281-2.5156 0.8125-1.9688 1.4688-2.5156 0.64063-0.53125 2.0312-0.53125h0.85938v1.9375h-0.64063q-0.9375 0-1.1875 0.26563-0.28125 0.28125-0.84375 1.7031-0.51562 1.3594-0.96875 1.8906-0.4375 0.51562-1.375 0.9375 1.5312 0.40625 2.9688 2.8125l2.5781 4.2812h-2.5781l-2.5-4.2812q-0.78125-1.2969-1.3594-1.7031-0.5625-0.40625-1.3594-0.40625v6.3906h-2.3906v-6.3906q-0.78125 0-1.3594 0.40625-0.5625 0.39063-1.3281 1.7031l-2.5156 4.2812h-2.5781l2.5625-4.2812q1.4531-2.4062 2.9844-2.8125-1.0469-0.48438-1.4688-1.0469-0.40625-0.5625-1.25-2.7031-0.28125-0.71875-0.60937-0.89063-0.32813-0.15625-1-0.15625-0.17188 0-0.6875 0v-1.9375h0.32812q1.3438 0 1.8906 0.17188 0.5625 0.15625 1 0.6875t1.1406 2.1875q0.85938 2.0469 1.3125 2.5 0.45313 0.4375 1.5781 0.4375v-5.9844zm9.4722 0h2.3438v10.547l6.5-10.547h2.5312v13.828h-2.3438v-10.484l-6.5 10.484h-2.5312zm16.749 0h9.625v11.906h1.5v5.8438h-1.9219v-3.9219h-10.891v3.9219h-1.9219v-5.8438h1.2344q2.4688-3.3594 2.375-11.906zm1.9531 1.9375q-0.26563 6.7344-2.0938 9.9688h7.4375v-9.9688zm20.773 10.188q-1.3125 1.1094-2.5156 1.5625-1.2031 0.45313-2.5781 0.45313-2.2812 0-3.5-1.1094-1.2188-1.1094-1.2188-2.8438 0-1.0156 0.45312-1.8594 0.46875-0.84375 1.2188-1.3438 0.75-0.51563 1.6875-0.76563 0.6875-0.1875 2.0781-0.35937 2.8281-0.32813 4.1719-0.79688 0.0156-0.48437 0.0156-0.625 0-1.4219-0.65625-2.0156-0.90625-0.79688-2.6719-0.79688-1.6562 0-2.4531 0.59375-0.78125 0.57813-1.1562 2.0469l-2.2969-0.3125q0.3125-1.4688 1.0312-2.375t2.0625-1.3906q1.3594-0.5 3.1406-0.5t2.875 0.42188q1.1094 0.42187 1.625 1.0469 0.53125 0.625 0.73437 1.5938 0.125 0.59375 0.125 2.1562v3.125q0 3.2656 0.14063 4.1406 0.15625 0.85937 0.59375 1.6562h-2.4375q-0.375-0.73438-0.46875-1.7031zm-0.20313-5.2344q-1.2656 0.51562-3.8281 0.89062-1.4375 0.20313-2.0469 0.46875-0.59375 0.25-0.92187 0.75-0.3125 0.5-0.3125 1.125 0 0.9375 0.70312 1.5625 0.70313 0.625 2.0781 0.625 1.3438 0 2.3906-0.59375 1.0625-0.59375 1.5625-1.625 0.375-0.79687 0.375-2.3438zm6.0124-6.8906h2.3438v5.7656h6.5v-5.7656h2.3438v13.828h-2.3438v-6.125h-6.5v6.125h-2.3438zm14.705 0h2.3438v10.547l6.5-10.547h2.5312v13.828h-2.3438v-10.484l-6.5 10.484h-2.5312zm24.359 9.375 2.4219 0.29688q-0.57812 2.125-2.125 3.2969-1.5469 1.1719-3.9531 1.1719-3.0312 0-4.8125-1.8594-1.7812-1.875-1.7812-5.25 0-3.4844 1.7969-5.4062 1.7969-1.9375 4.6719-1.9375 2.7656 0 4.5156 1.8906 1.7656 1.8906 1.7656 5.3125 0 0.20312-0.0156 0.625h-10.312q0.14063 2.2812 1.2969 3.5 1.1562 1.2031 2.8906 1.2031 1.2812 0 2.1875-0.67187 0.92188-0.6875 1.4531-2.1719zm-7.6875-3.7812h7.7188q-0.15625-1.75-0.89063-2.625-1.125-1.3438-2.9062-1.3438-1.6094 0-2.7188 1.0781-1.0938 1.0781-1.2031 2.8906zm29.481 3.1719 2.2969 0.29687q-0.375 2.3906-1.9375 3.7344-1.5469 1.3438-3.8125 1.3438-2.8438 0-4.5625-1.8438-1.7188-1.8594-1.7188-5.3281 0-2.2344 0.73437-3.9062 0.75-1.6875 2.2656-2.5312 1.5156-0.84375 3.2969-0.84375 2.25 0 3.6719 1.1406 1.4375 1.1406 1.8438 3.2344l-2.2812 0.35938q-0.32813-1.3906-1.1562-2.0938-0.8125-0.70313-1.9844-0.70313-1.7812 0-2.8906 1.2656-1.0938 1.2656-1.0938 4.0156 0 2.7812 1.0625 4.0469 1.0625 1.2656 2.7812 1.2656 1.3906 0 2.3125-0.84375 0.92187-0.85937 1.1719-2.6094zm3.737-1.8438q0-3.8438 2.125-5.6875 1.7812-1.5469 4.3438-1.5469 2.8594 0 4.6562 1.875 1.8125 1.8594 1.8125 5.1562 0 2.6719-0.79687 4.2031-0.79688 1.5312-2.3281 2.375t-3.3438 0.84375q-2.8906 0-4.6875-1.8594-1.7812-1.8594-1.7812-5.3594zm2.4062 0q0 2.6562 1.1562 3.9844 1.1562 1.3125 2.9062 1.3125t2.9062-1.3281q1.1562-1.3281 1.1562-4.0469 0-2.5625-1.1719-3.8906-1.1562-1.3281-2.8906-1.3281-1.75 0-2.9062 1.3281-1.1562 1.3125-1.1562 3.9688zm23.419-12.625 2.0625 0.0156q-0.14063 1.3906-0.625 1.9375-0.46875 0.54688-1.2188 0.70313t-2.9375 0.15625q-2.8906 0-3.9531 0.5625-1.0469 0.5625-1.5156 1.7969-0.46875 1.2188-0.51563 3.1719 0.89063-1.3281 2.0625-1.9844 1.1875-0.65625 2.6719-0.65625 2.7188 0 4.5 1.875 1.7969 1.8594 1.7969 5.0625 0 2.4062-0.90625 3.9688-0.89062 1.5469-2.125 2.3906-1.2344 0.84375-3.3594 0.84375-2.4531 0-3.8281-1.125-1.3594-1.125-2.0938-2.875-0.71875-1.7656-0.71875-6.125 0-5.4844 1.8438-7.375 1.8594-1.9062 5.7188-1.9062 2.3906 0 2.7188-0.0781 0.32813-0.0781 0.42188-0.35937zm-0.125 12.562q0-2.1562-1.0312-3.5312-1.0156-1.3906-2.875-1.3906-1.9375 0-3 1.4688-1.0469 1.4531-1.0469 3.8906 0 2.4062 1.1562 3.6875 1.1719 1.2656 2.875 1.2656 1.75 0 2.8281-1.4688 1.0938-1.4844 1.0938-3.9219zm18.424-6.8594h2.3438v13.828h-2.3438zm-13.109 0h2.3438v5.4062h2.9688q2.8906 0 4.4531 1.125 1.5781 1.125 1.5781 3.1094 0 1.7344-1.3125 2.9688-1.2969 1.2188-4.1719 1.2188h-5.8594zm2.3438 11.906h2.4531q2.2344 0 3.1719-0.54687 0.95312-0.54688 0.95312-1.7031 0-0.90625-0.70312-1.6094-0.70313-0.70313-3.1094-0.70313h-2.7656zm15.503-11.906h11.234v1.9375h-4.4531v11.891h-2.3281v-11.891h-4.4531zm13.459 0h2.3438v10.547l6.5-10.547h2.5312v13.828h-2.3438v-10.484l-6.5 10.484h-2.5312zm25.781 0v13.828h-2.3281v-5.3906h-1.3594q-1.2344 0-1.8438 0.32813-0.59375 0.3125-1.7656 2.0469l-2.0312 3.0156h-2.9062l2.5156-3.7188q1.1719-1.7031 2.3125-1.9375-2-0.26563-2.9844-1.4375-0.96875-1.1719-0.96875-2.6875 0-1.7969 1.2656-2.9219 1.2812-1.125 3.6875-1.125zm-2.3281 1.9375h-3.3438q-2.0938 0-2.7031 0.65625-0.59375 0.65625-0.59375 1.5312 0 1.2344 0.89062 1.8125 0.89063 0.57813 3.1562 0.57813h2.5938z" fill="#0c0910"/>
  <path d="m667.6 281.23h272v42.006h-272z" fill="#000" fill-opacity="0" fill-rule="evenodd"/>
  <path d="m691.39 305.76 2.2969 0.29687q-0.375 2.3906-1.9375 3.7344-1.5469 1.3438-3.8125 1.3438-2.8438 0-4.5625-1.8438-1.7188-1.8594-1.7188-5.3281 0-2.2344 0.73438-3.9062 0.75-1.6875 2.2656-2.5312 1.5156-0.84375 3.2969-0.84375 2.25 0 3.6719 1.1406 1.4375 1.1406 1.8438 3.2344l-2.2812 0.35938q-0.32812-1.3906-1.1562-2.0938-0.8125-0.70313-1.9844-0.70313-1.7812 0-2.8906 1.2656-1.0938 1.2656-1.0938 4.0156 0 2.7812 1.0625 4.0469 1.0625 1.2656 2.7812 1.2656 1.3906 0 2.3125-0.84375 0.92188-0.85937 1.1719-2.6094zm3.737-1.8438q0-3.8438 2.125-5.6875 1.7812-1.5469 4.3438-1.5469 2.8594 0 4.6562 1.875 1.8125 1.8594 1.8125 5.1562 0 2.6719-0.79688 4.2031-0.79687 1.5312-2.3281 2.375t-3.3438 0.84375q-2.8906 0-4.6875-1.8594-1.7812-1.8594-1.7812-5.3594zm2.4062 0q0 2.6562 1.1562 3.9844 1.1562 1.3125 2.9062 1.3125t2.9062-1.3281q1.1562-1.3281 1.1562-4.0469 0-2.5625-1.1719-3.8906-1.1562-1.3281-2.8906-1.3281-1.75 0-2.9062 1.3281-1.1562 1.3125-1.1562 3.9688zm23.419-12.625 2.0625 0.0156q-0.14063 1.3906-0.625 1.9375-0.46875 0.54688-1.2188 0.70313t-2.9375 0.15625q-2.8906 0-3.9531 0.5625-1.0469 0.5625-1.5156 1.7969-0.46875 1.2188-0.51563 3.1719 0.89063-1.3281 2.0625-1.9844 1.1875-0.65625 2.6719-0.65625 2.7188 0 4.5 1.875 1.7969 1.8594 1.7969 5.0625 0 2.4062-0.90625 3.9688-0.89062 1.5469-2.125 2.3906-1.2344 0.84375-3.3594 0.84375-2.4531 0-3.8281-1.125-1.3594-1.125-2.0938-2.875-0.71875-1.7656-0.71875-6.125 0-5.4844 1.8438-7.375 1.8594-1.9062 5.7188-1.9062 2.3906 0 2.7188-0.0781 0.32813-0.0781 0.42188-0.35937zm-0.125 12.562q0-2.1562-1.0312-3.5312-1.0156-1.3906-2.875-1.3906-1.9375 0-3 1.4688-1.0469 1.4531-1.0469 3.8906 0 2.4062 1.1562 3.6875 1.1719 1.2656 2.875 1.2656 1.75 0 2.8281-1.4688 1.0938-1.4844 1.0938-3.9219zm18.424-6.8594h2.3438v13.828h-2.3438zm-13.109 0h2.3438v5.4062h2.9688q2.8906 0 4.4531 1.125 1.5781 1.125 1.5781 3.1094 0 1.7344-1.3125 2.9688-1.2969 1.2188-4.1719 1.2188h-5.8594zm2.3438 11.906h2.4531q2.2344 0 3.1719-0.54687 0.95313-0.54688 0.95313-1.7031 0-0.90625-0.70313-1.6094-0.70312-0.70313-3.1094-0.70313h-2.7656zm15.503-11.906h11.234v1.9375h-4.4531v11.891h-2.3281v-11.891h-4.4531zm13.459 0h2.3438v10.547l6.5-10.547h2.5312v13.828h-2.3438v-10.484l-6.5 10.484h-2.5312zm24.359 9.375 2.4219 0.29688q-0.57812 2.125-2.125 3.2969-1.5469 1.1719-3.9531 1.1719-3.0312 0-4.8125-1.8594-1.7812-1.875-1.7812-5.25 0-3.4844 1.7969-5.4062 1.7969-1.9375 4.6719-1.9375 2.7656 0 4.5156 1.8906 1.7656 1.8906 1.7656 5.3125 0 0.20312-0.0156 0.625h-10.312q0.14063 2.2812 1.2969 3.5 1.1562 1.2031 2.8906 1.2031 1.2812 0 2.1875-0.67187 0.92188-0.6875 1.4531-2.1719zm-7.6875-3.7812h7.7188q-0.15625-1.75-0.89063-2.625-1.125-1.3438-2.9062-1.3438-1.6094 0-2.7188 1.0781-1.0938 1.0781-1.2031 2.8906zm20.465-5.5938h10.906v13.828h-2.3438v-11.891h-6.2188v11.891h-2.3438zm14.419 19.125v-19.125h2.1406v1.7969q0.75-1.0469 1.7031-1.5781 0.95313-0.53125 2.3125-0.53125 1.7656 0 3.1094 0.92188 1.3594 0.90625 2.0469 2.5625t0.6875 3.6406q0 2.125-0.76562 3.8281-0.75 1.6875-2.2031 2.5938-1.4531 0.90625-3.0469 0.90625-1.1719 0-2.1094-0.48438-0.92187-0.5-1.5312-1.2656v6.7344zm2.125-12.125q0 2.6562 1.0781 3.9375 1.0938 1.2812 2.625 1.2812 1.5625 0 2.6719-1.3125 1.1094-1.3281 1.1094-4.1094 0-2.6406-1.0938-3.9531-1.0781-1.3125-2.5938-1.3125-1.4844 0-2.6406 1.4062-1.1562 1.3906-1.1562 4.0625zm11.841-0.0781q0-3.8438 2.125-5.6875 1.7812-1.5469 4.3438-1.5469 2.8594 0 4.6562 1.875 1.8125 1.8594 1.8125 5.1562 0 2.6719-0.79688 4.2031-0.79687 1.5312-2.3281 2.375t-3.3438 0.84375q-2.8906 0-4.6875-1.8594-1.7812-1.8594-1.7812-5.3594zm2.4062 0q0 2.6562 1.1562 3.9844 1.1562 1.3125 2.9062 1.3125t2.9062-1.3281q1.1562-1.3281 1.1562-4.0469 0-2.5625-1.1719-3.8906-1.1562-1.3281-2.8906-1.3281-1.75 0-2.9062 1.3281-1.1562 1.3125-1.1562 3.9688zm13.278-6.9219h2.3438v10.547l6.5-10.547h2.5312v13.828h-2.3438v-10.484l-6.5 10.484h-2.5312zm17.953 7.5781v-1.8281q1.4844-0.0156 2.0156-0.10937 0.54688-0.10938 1.0312-0.625 0.48438-0.53125 0.48438-1.3125 0-0.95313-0.64063-1.5156-0.625-0.5625-1.625-0.5625-1.9844 0-2.7656 2.3281l-2.2344-0.375q1.0469-3.8906 5.0312-3.8906 2.2031 0 3.4531 1.2188 1.2656 1.2031 1.2656 2.8906t-1.6406 2.6875q1.0469 0.5625 1.5625 1.4375 0.51562 0.85937 0.51562 2.0469 0 1.8594-1.3594 3.0156-1.3438 1.1562-3.7812 1.1562-4.7188 0-5.4688-4.2031l2.1875-0.46875q0.3125 1.3281 1.2188 2.0625 0.92187 0.71875 2.1094 0.71875t1.9688-0.67187q0.78125-0.67188 0.78125-1.7031 0-0.8125-0.5-1.4062-0.48437-0.60937-1.0469-0.75-0.5625-0.15625-2.0312-0.15625-0.10938 0-0.53125 0.0156zm8.0004-0.65625q0-3.8438 2.125-5.6875 1.7812-1.5469 4.3438-1.5469 2.8594 0 4.6562 1.875 1.8125 1.8594 1.8125 5.1562 0 2.6719-0.79687 4.2031-0.79688 1.5312-2.3281 2.375t-3.3438 0.84375q-2.8906 0-4.6875-1.8594-1.7812-1.8594-1.7812-5.3594zm2.4062 0q0 2.6562 1.1562 3.9844 1.1562 1.3125 2.9062 1.3125t2.9062-1.3281q1.1562-1.3281 1.1562-4.0469 0-2.5625-1.1719-3.8906-1.1562-1.3281-2.8906-1.3281-1.75 0-2.9062 1.3281-1.1562 1.3125-1.1562 3.9688zm13.356-6.9219h2.3438v11.891h5.3438v-11.891h2.3438v11.891h5.3438v-11.891h2.3281v13.828h-17.703zm22.463 0h10.875v13.828h-2.3281v-11.891h-6.2031v6.8906q0 2.4062-0.15625 3.1875-0.15625 0.76562-0.85938 1.3438-0.70312 0.5625-2.0312 0.5625-0.82812 0-1.8906-0.10938v-1.9531h1.0312q0.71875 0 1.0312-0.14063 0.3125-0.15625 0.42187-0.48437 0.10938-0.32813 0.10938-2.125zm13.838 6.9219q0-3.8438 2.125-5.6875 1.7812-1.5469 4.3438-1.5469 2.8594 0 4.6562 1.875 1.8125 1.8594 1.8125 5.1562 0 2.6719-0.79687 4.2031-0.79688 1.5312-2.3281 2.375t-3.3438 0.84375q-2.8906 0-4.6875-1.8594-1.7812-1.8594-1.7812-5.3594zm2.4062 0q0 2.6562 1.1562 3.9844 1.1562 1.3125 2.9062 1.3125t2.9062-1.3281q1.1562-1.3281 1.1562-4.0469 0-2.5625-1.1719-3.8906-1.1562-1.3281-2.8906-1.3281-1.75 0-2.9062 1.3281-1.1562 1.3125-1.1562 3.9688z" fill="#0c0910"/>
  <g fill-rule="evenodd">
   <path d="m678.43 329.76h249.45" fill="#000" fill-opacity="0"/>
   <path d="m678.43 329.76h243.45" stroke="#000" stroke-linecap="butt" stroke-linejoin="round"/>
   <path d="m921.88 331.41 4.5381-1.6517-4.5381-1.6517z" fill="#000" stroke="#000" stroke-linecap="butt"/>
   <path d="m651.14 200.06c0-29.225 64.471-52.917 144-52.917 79.529 0 144 23.692 144 52.917s-64.471 52.917-144 52.917c-79.529 0-144-23.692-144-52.917z" fill="#c5d8f1"/>
   <path d="m651.14 200.06c0-29.225 64.471-52.917 144-52.917 79.529 0 144 23.692 144 52.917s-64.471 52.917-144 52.917c-79.529 0-144-23.692-144-52.917z" stroke="#000" stroke-linecap="butt" stroke-linejoin="round"/>
   <path d="m691.48 174.32h196.67v45.237h-196.67z" fill="#000" fill-opacity="0"/>
  </g>
  <path d="m724.64 212.31v-21.031h2.3438v1.9688q0.82812-1.1562 1.875-1.7344 1.0469-0.57812 2.5312-0.57812 1.9531 0 3.4375 1 1.5 1 2.25 2.8281 0.76562 1.8281 0.76562 4 0 2.3281-0.84375 4.2031-0.82812 1.875-2.4375 2.875-1.5938 0.98437-3.3594 0.98437-1.2812 0-2.3125-0.54687-1.0156-0.54688-1.6719-1.375v7.4062zm2.3281-13.344q0 2.9375 1.1875 4.3438 1.1875 1.3906 2.875 1.3906 1.7188 0 2.9375-1.4531 1.2344-1.4531 1.2344-4.5 0-2.9062-1.2031-4.3438-1.1875-1.4531-2.8438-1.4531t-2.9219 1.5469q-1.2656 1.5312-1.2656 4.4688zm13.014-0.0937q0-4.2188 2.3594-6.25 1.9531-1.6875 4.7812-1.6875 3.125 0 5.1094 2.0625 2 2.0469 2 5.6719 0 2.9219-0.875 4.6094t-2.5625 2.625q-1.6875 0.92187-3.6719 0.92187-3.2031 0-5.1719-2.0469-1.9688-2.0469-1.9688-5.9062zm2.6562 0q0 2.9219 1.2656 4.375 1.2812 1.4531 3.2188 1.4531 1.9219 0 3.1875-1.4531 1.2812-1.4688 1.2812-4.4531 0-2.8281-1.2812-4.2812-1.2812-1.4531-3.1875-1.4531-1.9375 0-3.2188 1.4531-1.2656 1.4375-1.2656 4.3594zm23.482-7.5938v6.5625q1.2344 0 1.7344-0.46875t1.4688-2.75q0.89063-2.1562 1.6094-2.7656 0.70312-0.57812 2.2344-0.57812h0.95313v2.125l-0.70313-0.0156q-1.0312 0-1.3281 0.3125-0.29688 0.3125-0.90625 1.875-0.57813 1.4844-1.0625 2.0625-0.48438 0.5625-1.5156 1.0469 1.6719 0.4375 3.2656 3.0781l2.8281 4.7188h-2.8281l-2.7656-4.7188q-0.84375-1.4219-1.4844-1.8594-0.625-0.45313-1.5-0.45313v7.0312h-2.6406v-7.0312q-0.85937 0-1.4844 0.4375t-1.4688 1.875l-2.7656 4.7188h-2.8438l2.8281-4.7188q1.6094-2.6406 3.2812-3.0781-1.1406-0.53125-1.6094-1.1562-0.45312-0.625-1.375-2.9688-0.3125-0.79688-0.67187-0.98438-0.375-0.1875-1.0938-0.1875-0.1875 0-0.76563 0.0156v-2.125h0.35938q1.4844 0 2.0938 0.1875 0.60937 0.17187 1.0938 0.75 0.48437 0.57812 1.25 2.4062 0.95312 2.25 1.4375 2.7344 0.5 0.48438 1.7344 0.48438v-6.5625zm12.463 0h10.594v13.078h1.6406v6.4375h-2.1094v-4.3125h-11.969v4.3125h-2.125v-6.4375h1.3594q2.7188-3.6875 2.6094-13.078zm2.1406 2.125q-0.28125 7.4062-2.2812 10.953h8.1719v-10.953zm23.347 8.1875 2.6562 0.32812q-0.625 2.3281-2.3281 3.625-1.7031 1.2812-4.3594 1.2812-3.3281 0-5.2812-2.0469-1.9531-2.0625-1.9531-5.7656 0-3.8438 1.9688-5.9531 1.9844-2.125 5.125-2.125 3.0625 0 4.9844 2.0781 1.9375 2.0625 1.9375 5.8438 0 0.21875-0.0156 0.67188h-11.344q0.14063 2.5156 1.4219 3.8438 1.2812 1.3281 3.1719 1.3281 1.4219 0 2.4219-0.73437 1-0.75 1.5938-2.375zm-8.4688-4.1719h8.5q-0.17188-1.9219-0.96875-2.875-1.2344-1.5-3.2031-1.5-1.7656 0-2.9844 1.1875-1.2031 1.1875-1.3438 3.1875zm14.389-6.1406h2.5781v6.3281h7.1407v-6.3281h2.5781v15.203h-2.5781v-6.75h-7.1407v6.75h-2.5781zm16.181 0h2.5781v11.594l7.1406-11.594h2.7812v15.203h-2.5781v-11.531l-7.1406 11.531h-2.7812zm26.789 10.312 2.6562 0.32812q-0.625 2.3281-2.3281 3.625-1.7031 1.2812-4.3594 1.2812-3.3281 0-5.2812-2.0469-1.9531-2.0625-1.9531-5.7656 0-3.8438 1.9688-5.9531 1.9844-2.125 5.125-2.125 3.0625 0 4.9844 2.0781 1.9375 2.0625 1.9375 5.8438 0 0.21875-0.0156 0.67188h-11.344q0.14062 2.5156 1.4219 3.8438 1.2812 1.3281 3.1719 1.3281 1.4219 0 2.4219-0.73437 1-0.75 1.5938-2.375zm-8.4688-4.1719h8.5q-0.17187-1.9219-0.96875-2.875-1.2344-1.5-3.2031-1.5-1.7656 0-2.9844 1.1875-1.2031 1.1875-1.3438 3.1875z" fill="#0c0910"/>
  <path d="m893.91 193.05h288v74.319h-288z" fill="#000" fill-opacity="0" fill-rule="evenodd"/>
  <path d="m1000.1 208.82h9.625v11.906h1.5v5.8438h-1.9219v-3.9219h-10.891v3.9219h-1.9219v-5.8438h1.2344q2.4687-3.3594 2.375-11.906zm1.9531 1.9375q-0.2656 6.7344-2.0937 9.9688h7.4375v-9.9688zm10.882 4.9844q0-3.8438 2.125-5.6875 1.7812-1.5469 4.3437-1.5469 2.8594 0 4.6563 1.875 1.8125 1.8594 1.8125 5.1562 0 2.6719-0.7969 4.2031t-2.3281 2.375q-1.5313 0.84375-3.3438 0.84375-2.8906 0-4.6875-1.8594-1.7812-1.8594-1.7812-5.3594zm2.4062 0q0 2.6562 1.1563 3.9844 1.1562 1.3125 2.9062 1.3125t2.9063-1.3281q1.1562-1.3281 1.1562-4.0469 0-2.5625-1.1718-3.8906-1.1563-1.3281-2.8907-1.3281-1.75 0-2.9062 1.3281-1.1563 1.3125-1.1563 3.9688zm13.294-6.9219h10.906v13.828h-2.3438v-11.891h-6.2187v11.891h-2.3438zm14.325 19.156-0.2656-2.2031q0.7656 0.20313 1.3437 0.20313 0.7813 0 1.25-0.26563 0.4688-0.25 0.7657-0.71875 0.2187-0.35937 0.7187-1.75 0.062-0.1875 0.2031-0.5625l-5.25-13.859h2.5313l2.875 8.0156q0.5625 1.5156 1 3.2031 0.4062-1.625 0.9687-3.1562l2.9532-8.0625h2.3437l-5.2656 14.062q-0.8438 2.2812-1.3125 3.1406-0.625 1.1562-1.4375 1.6875-0.7969 0.54688-1.9219 0.54688-0.6719 0-1.5-0.28125zm22.154-10.391 2.2969 0.29688q-0.375 2.3906-1.9375 3.7344-1.5469 1.3438-3.8125 1.3438-2.8438 0-4.5625-1.8438-1.7188-1.8594-1.7188-5.3281 0-2.2344 0.7344-3.9062 0.75-1.6875 2.2656-2.5312t3.2969-0.84375q2.25 0 3.6719 1.1406 1.4375 1.1406 1.8437 3.2344l-2.2812 0.35937q-0.3282-1.3906-1.1563-2.0938-0.8125-0.70312-1.9844-0.70312-1.7812 0-2.8906 1.2656-1.0937 1.2656-1.0937 4.0156 0 2.7812 1.0625 4.0469 1.0625 1.2656 2.7812 1.2656 1.3906 0 2.3125-0.84375 0.9219-0.85938 1.1719-2.6094zm4.2969-8.7656h2.3437v5.9844q1.1094 0 1.5625-0.42187 0.4531-0.4375 1.3125-2.5156 0.7031-1.6406 1.125-2.1562 0.4375-0.51562 0.9844-0.70312 0.5625-0.1875 1.7969-0.1875h0.4687v1.9375h-0.6406q-0.9219 0-1.1875 0.26562-0.2813 0.28125-0.8281 1.7031-0.5469 1.3594-0.9844 1.8906-0.4375 0.51563-1.3594 0.9375 1.5 0.40625 2.9688 2.8125l2.5625 4.2812h-2.5782l-2.5-4.2812q-0.7656-1.2969-1.3437-1.7031t-1.3594-0.40625v6.3906h-2.3437z" fill="#0c0910"/>
  <path d="m938.94 240.82h2.3438v5.9844q1.1094 0 1.5625-0.42187 0.45312-0.4375 1.3125-2.5156 0.70312-1.6406 1.125-2.1562 0.4375-0.51562 0.98437-0.70312 0.5625-0.1875 1.7969-0.1875h0.46875v1.9375h-0.64063q-0.92187 0-1.1875 0.26562-0.28125 0.28125-0.82812 1.7031-0.54688 1.3594-0.98438 1.8906-0.4375 0.51563-1.3594 0.9375 1.5 0.40625 2.9688 2.8125l2.5625 4.2812h-2.5781l-2.5-4.2812q-0.76562-1.2969-1.3438-1.7031-0.57812-0.40625-1.3594-0.40625v6.3906h-2.3438zm19.084 0h10.906v13.828h-2.3438v-11.891h-6.2188v11.891h-2.3438zm15.575 0h10.875v13.828h-2.3281v-11.891h-6.2031v6.8906q0 2.4062-0.15625 3.1875-0.15625 0.76563-0.85937 1.3438-0.70313 0.5625-2.0312 0.5625-0.82813 0-1.8906-0.10937v-1.9531h1.0312q0.71875 0 1.0312-0.14062 0.3125-0.15625 0.42188-0.48438 0.10937-0.32812 0.10937-2.125zm23.429 12.125q-1.3125 1.1094-2.5156 1.5625-1.2031 0.45312-2.5781 0.45312-2.2812 0-3.5-1.1094-1.2188-1.1094-1.2188-2.8438 0-1.0156 0.45312-1.8594 0.46875-0.84375 1.2188-1.3438 0.75-0.51562 1.6875-0.76562 0.6875-0.1875 2.0781-0.35938 2.8281-0.32812 4.1719-0.79687 0.0156-0.48438 0.0156-0.625 0-1.4219-0.65625-2.0156-0.90625-0.79687-2.6719-0.79687-1.6562 0-2.4531 0.59375-0.78125 0.57812-1.1562 2.0469l-2.2969-0.3125q0.3125-1.4688 1.0312-2.375t2.0625-1.3906q1.3594-0.5 3.1406-0.5t2.875 0.42187q1.1094 0.42188 1.625 1.0469 0.53125 0.625 0.73437 1.5938 0.125 0.59375 0.125 2.1562v3.125q0 3.2656 0.14063 4.1406 0.15625 0.85938 0.59375 1.6562h-2.4375q-0.375-0.73437-0.46875-1.7031zm-0.20313-5.2344q-1.2656 0.51563-3.8281 0.89063-1.4375 0.20312-2.0469 0.46875-0.59375 0.25-0.92187 0.75-0.3125 0.5-0.3125 1.125 0 0.9375 0.70312 1.5625 0.70313 0.625 2.0781 0.625 1.3438 0 2.3906-0.59375 1.0625-0.59375 1.5625-1.625 0.375-0.79688 0.375-2.3438zm6.0124-6.8906h2.3438v5.7656h6.5v-5.7656h2.3437v13.828h-2.3437v-6.125h-6.5v6.125h-2.3438zm14.705 0h2.3438v10.547l6.5-10.547h2.5312v13.828h-2.3437v-10.484l-6.5 10.484h-2.5313zm14.89 19.125v-19.125h2.1407v1.7969q0.75-1.0469 1.7031-1.5781t2.3125-0.53125q1.7656 0 3.1094 0.92187 1.3593 0.90625 2.0468 2.5625t0.6875 3.6406q0 2.125-0.7656 3.8281-0.75 1.6875-2.2031 2.5938t-3.0469 0.90625q-1.1719 0-2.1094-0.48437-0.9218-0.5-1.5312-1.2656v6.7344zm2.125-12.125q0 2.6562 1.0782 3.9375 1.0937 1.2812 2.625 1.2812 1.5625 0 2.6718-1.3125 1.1094-1.3281 1.1094-4.1094 0-2.6406-1.0937-3.9531-1.0782-1.3125-2.5938-1.3125-1.4844 0-2.6406 1.4062-1.1563 1.3906-1.1563 4.0625zm11.841-0.0781q0-3.8438 2.125-5.6875 1.7813-1.5469 4.3438-1.5469 2.8593 0 4.6562 1.875 1.8125 1.8594 1.8125 5.1562 0 2.6719-0.7969 4.2031-0.7968 1.5312-2.3281 2.375-1.5312 0.84375-3.3437 0.84375-2.8907 0-4.6875-1.8594-1.7813-1.8594-1.7813-5.3594zm2.4063 0q0 2.6562 1.1562 3.9844 1.1563 1.3125 2.9063 1.3125t2.9062-1.3281q1.1563-1.3281 1.1563-4.0469 0-2.5625-1.1719-3.8906-1.1563-1.3281-2.8906-1.3281-1.75 0-2.9063 1.3281-1.1562 1.3125-1.1562 3.9688zm13.294-6.9219h5.4062q1.9844 0 2.9531 0.34375 0.9844 0.32812 1.6719 1.2188 0.7031 0.875 0.7031 2.1094 0 1-0.4218 1.7344-0.4063 0.73437-1.2188 1.2188 0.9688 0.32812 1.6094 1.2188 0.6562 0.89062 0.6562 2.125-0.1406 1.9531-1.4218 2.9062-1.2657 0.95312-3.7032 0.95312h-6.2343zm2.3437 5.8281h2.5q1.5 0 2.0625-0.15625t1-0.625q0.4375-0.48437 0.4375-1.1562 0-1.0938-0.7812-1.5156-0.7657-0.4375-2.6407-0.4375h-2.5781zm0 6.0781h3.0938q1.9843 0 2.7187-0.45313 0.75-0.46875 0.7969-1.6094 0-0.65625-0.4375-1.2188-0.4219-0.57813-1.125-0.71875-0.6875-0.15625-2.2031-0.15625h-2.8438zm20.534 0.21875q-1.3125 1.1094-2.5157 1.5625-1.2031 0.45312-2.5781 0.45312-2.2812 0-3.5-1.1094-1.2187-1.1094-1.2187-2.8438 0-1.0156 0.4531-1.8594 0.4687-0.84375 1.2187-1.3438 0.75-0.51562 1.6875-0.76562 0.6875-0.1875 2.0782-0.35938 2.8281-0.32812 4.1718-0.79687 0.016-0.48438 0.016-0.625 0-1.4219-0.6563-2.0156-0.9062-0.79687-2.6719-0.79687-1.6562 0-2.4531 0.59375-0.7812 0.57812-1.1562 2.0469l-2.2969-0.3125q0.3125-1.4688 1.0312-2.375 0.7188-0.90625 2.0625-1.3906 1.3594-0.5 3.1407-0.5 1.7812 0 2.875 0.42187 1.1093 0.42188 1.625 1.0469 0.5312 0.625 0.7343 1.5938 0.125 0.59375 0.125 2.1562v3.125q0 3.2656 0.1407 4.1406 0.1562 0.85938 0.5937 1.6562h-2.4375q-0.375-0.73437-0.4687-1.7031zm-0.2032-5.2344q-1.2656 0.51563-3.8281 0.89063-1.4375 0.20312-2.0469 0.46875-0.5937 0.25-0.9218 0.75-0.3125 0.5-0.3125 1.125 0 0.9375 0.7031 1.5625t2.0781 0.625q1.3438 0 2.3906-0.59375 1.0625-0.59375 1.5625-1.625 0.375-0.79688 0.375-2.3438zm6.0125-6.8906h2.3437v5.7656h6.5v-5.7656h2.3438v13.828h-2.3438v-6.125h-6.5v6.125h-2.3437zm14.705 0h2.3437v10.547l6.5-10.547h2.5313v13.828h-2.3438v-10.484l-6.5 10.484h-2.5312zm14.921 0h2.3438v5.7812h2.8437q0.3125-2.9688 1.8438-4.5312 1.5469-1.5625 4.0156-1.5625 2.0938 0 3.2969 0.85937 1.2187 0.84375 2 2.3281 0.7812 1.4844 0.7812 3.9844 0 3.5781-1.625 5.4375-1.625 1.8438-4.4062 1.8438-2.5938 0-4.1563-1.7188t-1.75-4.7188h-2.8437v6.125h-2.3438zm11.172 1.6875q-1.7187 0-2.6875 1.3281-0.9531 1.3125-0.9531 3.6875 0 2.8594 0.9687 4.1875 0.9688 1.3281 2.5782 1.3281 1.5937 0 2.6093-1.2344 1.0313-1.2344 1.0313-3.9688 0-2.6562-0.8906-3.9844-0.875-1.3438-2.6563-1.3438z" fill="#0c0910"/>
  <g fill-rule="evenodd">
   <path d="m655.09 612.29c0-29.225 64.471-52.917 144-52.917s144 23.692 144 52.917-64.471 52.917-144 52.917-144-23.692-144-52.917z" fill="#c5d8f1"/>
   <path d="m655.09 612.29c0-29.225 64.471-52.917 144-52.917s144 23.692 144 52.917-64.471 52.917-144 52.917-144-23.692-144-52.917z" stroke="#000" stroke-linecap="butt" stroke-linejoin="round"/>
   <path d="m700.84 567.17h196.67v80.781h-196.67z" fill="#000" fill-opacity="0"/>
  </g>
  <path d="m742.37 592.45v-2.0156q1.6406-0.0156 2.2344-0.125 0.59375-0.125 1.1094-0.6875 0.53125-0.57812 0.53125-1.4375 0-1.0469-0.6875-1.6719t-1.7969-0.625q-2.1719 0-3.0469 2.5625l-2.4531-0.39063q1.1406-4.2812 5.5312-4.2812 2.4375 0 3.8125 1.3281 1.3906 1.3281 1.3906 3.1719 0 1.875-1.8125 2.9688 1.1406 0.625 1.7188 1.5781 0.57813 0.9375 0.57813 2.25 0 2.0469-1.5 3.3281-1.4844 1.2656-4.1562 1.2656-5.2031 0-6.0312-4.625l2.4219-0.51563q0.32813 1.4531 1.3281 2.2656 1.0156 0.79687 2.3125 0.79687 1.3125 0 2.1719-0.73437 0.875-0.73438 0.875-1.8906 0-0.875-0.54687-1.5312-0.54688-0.67187-1.1719-0.82812-0.60937-0.17188-2.2188-0.17188-0.14062 0-0.59375 0.0156zm20.009 5q-1.4375 1.2188-2.7656 1.7188-1.3125 0.5-2.8281 0.5-2.5156 0-3.8594-1.2188-1.3438-1.2344-1.3438-3.1406 0-1.1094 0.5-2.0312 0.51563-0.92187 1.3281-1.4844 0.82812-0.5625 1.8594-0.84375 0.76563-0.20313 2.2969-0.39063 3.125-0.375 4.5938-0.89062 0.0156-0.53125 0.0156-0.67188 0-1.5781-0.73437-2.2188-0.98438-0.875-2.9375-0.875-1.8125 0-2.6875 0.64063-0.85938 0.64062-1.2656 2.25l-2.5312-0.34375q0.34375-1.6094 1.125-2.6094 0.79688-1 2.2812-1.5312 1.5-0.53125 3.4531-0.53125 1.9531 0 3.1719 0.45313 1.2188 0.45312 1.7812 1.1562 0.57813 0.6875 0.8125 1.75 0.125 0.65625 0.125 2.375v3.4375q0 3.5938 0.15625 4.5469 0.17188 0.95313 0.65625 1.8281h-2.6875q-0.40625-0.79688-0.51562-1.875zm-0.21875-5.75q-1.4062 0.5625-4.2031 0.96875-1.5938 0.21875-2.25 0.51562-0.65625 0.28125-1.0156 0.84375-0.35938 0.54688-0.35938 1.2188 0 1.0312 0.78125 1.7188t2.2812 0.6875q1.4844 0 2.6406-0.65625 1.1719-0.65625 1.7188-1.7812 0.40625-0.875 0.40625-2.5781zm6.5922-7.5781h2.5781v6.5625q1.2344 0 1.7188-0.46875 0.5-0.46875 1.4531-2.75 0.76563-1.7969 1.2344-2.375 0.46875-0.57812 1.0781-0.76562 0.625-0.20313 1.9844-0.20313h0.51562v2.125l-0.71875-0.0156q-1.0156 0-1.2969 0.3125-0.29688 0.3125-0.92188 1.875-0.57812 1.4844-1.0781 2.0625-0.48438 0.5625-1.5 1.0469 1.6719 0.4375 3.2656 3.0781l2.8281 4.7188h-2.8438l-2.75-4.7188q-0.84375-1.4062-1.4688-1.8594-0.625-0.45312-1.5-0.45312v7.0312h-2.5781zm12.207 7.5938q0-4.2188 2.3594-6.25 1.9531-1.6875 4.7812-1.6875 3.125 0 5.1094 2.0625 2 2.0469 2 5.6719 0 2.9219-0.875 4.6094t-2.5625 2.625q-1.6875 0.92188-3.6719 0.92188-3.2031 0-5.1719-2.0469-1.9688-2.0469-1.9688-5.9062zm2.6562 0q0 2.9219 1.2656 4.375 1.2812 1.4531 3.2188 1.4531 1.9219 0 3.1875-1.4531 1.2812-1.4688 1.2812-4.4531 0-2.8281-1.2812-4.2812-1.2812-1.4531-3.1875-1.4531-1.9375 0-3.2188 1.4531-1.2656 1.4375-1.2656 4.3594zm14.639-7.5938h2.5781v6.3281h7.1406v-6.3281h2.5781v15.203h-2.5781v-6.75h-7.1406v6.75h-2.5781zm15.228 0h2.5781v2.875q0 1.8594 0.21875 2.7031 0.23438 0.82812 1.0781 1.4531t2.1094 0.625q1.4688 0 3.7812-0.76562v-6.8906h2.5781v15.203h-2.5781v-6.125q-2.375 0.73437-4.4375 0.73437-1.7344 0-3.0625-0.875-1.3125-0.875-1.7969-2.1406-0.46875-1.2812-0.46875-2.8281zm16.233 0h2.5781v11.594l7.1406-11.594h2.7812v15.203h-2.5781v-11.531l-7.1406 11.531h-2.7812zm17.632 0h11.984v15.203h-2.5625v-13.078h-6.8438v7.5781q0 2.6562-0.17188 3.5-0.17187 0.84375-0.95312 1.4688-0.76563 0.625-2.2188 0.625-0.90625 0-2.0781-0.10938v-2.1406h1.125q0.8125 0 1.1562-0.15625 0.34375-0.17188 0.45313-0.53125 0.10937-0.35938 0.10937-2.3438z" fill="#0c0910"/>
  <path d="m720.55 619.32h2.5781v11.594l7.1406-11.594h2.7812v15.203h-2.5781v-11.531l-7.1406 11.531h-2.7812zm26.304 9.625 2.5312 0.34375q-0.40625 2.6094-2.125 4.0938-1.7188 1.4844-4.2031 1.4844-3.125 0-5.0312-2.0312-1.8906-2.0469-1.8906-5.8594 0-2.4688 0.8125-4.3125 0.82813-1.8438 2.4844-2.7656 1.6719-0.92188 3.6406-0.92188 2.4688 0 4.0469 1.25 1.5781 1.25 2.0312 3.5625l-2.5156 0.375q-0.35937-1.5312-1.2656-2.2969-0.90625-0.78125-2.2031-0.78125-1.9375 0-3.1562 1.4062-1.2188 1.3906-1.2188 4.4062 0 3.0781 1.1719 4.4688 1.1719 1.375 3.0625 1.375 1.5156 0 2.5312-0.92188 1.0156-0.9375 1.2969-2.875zm4.7578-9.625h12v15.203h-2.5781v-13.078h-6.8438v13.078h-2.5781zm14.897 7.5938q0-4.2188 2.3594-6.25 1.9531-1.6875 4.7812-1.6875 3.125 0 5.1094 2.0625 2 2.0469 2 5.6719 0 2.9219-0.875 4.6094t-2.5625 2.625q-1.6875 0.92188-3.6719 0.92188-3.2031 0-5.1719-2.0469-1.9688-2.0469-1.9688-5.9062zm2.6562 0q0 2.9219 1.2656 4.375 1.2812 1.4531 3.2188 1.4531 1.9219 0 3.1875-1.4531 1.2812-1.4688 1.2812-4.4531 0-2.8281-1.2812-4.2812-1.2812-1.4531-3.1875-1.4531-1.9375 0-3.2188 1.4531-1.2656 1.4375-1.2656 4.3594zm15.229-7.5938h11.984v15.203h-2.5625v-13.078h-6.8438v7.5781q0 2.6562-0.17187 3.5-0.17188 0.84375-0.95313 1.4688-0.76562 0.625-2.2188 0.625-0.90625 0-2.0781-0.10938v-2.1406h1.125q0.8125 0 1.1562-0.15625 0.34375-0.17188 0.45312-0.53125 0.10938-0.35938 0.10938-2.3438zm15.878 0h2.5781v6.3281h7.1406v-6.3281h2.5781v15.203h-2.5781v-6.75h-7.1406v6.75h-2.5781zm26.587 10.312 2.6562 0.32813q-0.625 2.3281-2.3281 3.625-1.7031 1.2812-4.3594 1.2812-3.3281 0-5.2812-2.0469-1.9531-2.0625-1.9531-5.7656 0-3.8438 1.9688-5.9531 1.9844-2.125 5.125-2.125 3.0625 0 4.9844 2.0781 1.9375 2.0625 1.9375 5.8438 0 0.21875-0.0156 0.67187h-11.344q0.14062 2.5156 1.4219 3.8438 1.2812 1.3281 3.1719 1.3281 1.4219 0 2.4219-0.73438 1-0.75 1.5938-2.375zm-8.4688-4.1719h8.5q-0.17187-1.9219-0.96875-2.875-1.2344-1.5-3.2031-1.5-1.7656 0-2.9844 1.1875-1.2031 1.1875-1.3438 3.1875zm14.389-6.1406h2.5781v6.3281h7.1406v-6.3281h2.5781v15.203h-2.5781v-6.75h-7.1406v6.75h-2.5781zm16.181 0h2.5781v11.594l7.1406-11.594h2.7812v15.203h-2.5781v-11.531l-7.1406 11.531h-2.7812zm26.789 10.312 2.6562 0.32813q-0.625 2.3281-2.3281 3.625-1.7031 1.2812-4.3594 1.2812-3.3281 0-5.2812-2.0469-1.9531-2.0625-1.9531-5.7656 0-3.8438 1.9688-5.9531 1.9844-2.125 5.125-2.125 3.0625 0 4.9844 2.0781 1.9375 2.0625 1.9375 5.8438 0 0.21875-0.0156 0.67187h-11.344q0.14062 2.5156 1.4219 3.8438 1.2812 1.3281 3.1719 1.3281 1.4219 0 2.4219-0.73438 1-0.75 1.5938-2.375zm-8.4688-4.1719h8.5q-0.17187-1.9219-0.96875-2.875-1.2344-1.5-3.2031-1.5-1.7656 0-2.9844 1.1875-1.2031 1.1875-1.3438 3.1875z" fill="#0c0910"/>
  <path d="m789.82 514.73h288v42.006h-288z" fill="#000" fill-opacity="0" fill-rule="evenodd"/>
  <path d="m814.06 538.08v-1.8281q1.4844-0.0156 2.0156-0.10937 0.54687-0.10938 1.0312-0.625 0.48437-0.53125 0.48437-1.3125 0-0.95313-0.64062-1.5156-0.625-0.5625-1.625-0.5625-1.9844 0-2.7656 2.3281l-2.2344-0.375q1.0469-3.8906 5.0312-3.8906 2.2031 0 3.4531 1.2188 1.2656 1.2031 1.2656 2.8906t-1.6406 2.6875q1.0469 0.5625 1.5625 1.4375 0.51563 0.85937 0.51563 2.0469 0 1.8594-1.3594 3.0156-1.3438 1.1562-3.7812 1.1562-4.7188 0-5.4688-4.2031l2.1875-0.46875q0.3125 1.3281 1.2188 2.0625 0.92188 0.71875 2.1094 0.71875t1.9688-0.67187q0.78125-0.67188 0.78125-1.7031 0-0.8125-0.5-1.4062-0.48438-0.60937-1.0469-0.75-0.5625-0.15625-2.0312-0.15625-0.10937 0-0.53125 0.0156zm18.19 4.5469q-1.3125 1.1094-2.5156 1.5625-1.2031 0.45313-2.5781 0.45313-2.2812 0-3.5-1.1094-1.2188-1.1094-1.2188-2.8438 0-1.0156 0.45312-1.8594 0.46875-0.84375 1.2188-1.3438 0.75-0.51563 1.6875-0.76563 0.6875-0.1875 2.0781-0.35937 2.8281-0.32813 4.1719-0.79688 0.0156-0.48437 0.0156-0.625 0-1.4219-0.65625-2.0156-0.90625-0.79688-2.6719-0.79688-1.6562 0-2.4531 0.59375-0.78125 0.57813-1.1562 2.0469l-2.2969-0.3125q0.3125-1.4688 1.0312-2.375t2.0625-1.3906q1.3594-0.5 3.1406-0.5t2.875 0.42188q1.1094 0.42187 1.625 1.0469 0.53125 0.625 0.73437 1.5938 0.125 0.59375 0.125 2.1562v3.125q0 3.2656 0.14063 4.1406 0.15625 0.85937 0.59375 1.6562h-2.4375q-0.375-0.73438-0.46875-1.7031zm-0.20313-5.2344q-1.2656 0.51562-3.8281 0.89062-1.4375 0.20313-2.0469 0.46875-0.59375 0.25-0.92187 0.75-0.3125 0.5-0.3125 1.125 0 0.9375 0.70312 1.5625 0.70313 0.625 2.0781 0.625 1.3438 0 2.3906-0.59375 1.0625-0.59375 1.5625-1.625 0.375-0.79687 0.375-2.3438zm6.0125-6.8906h5.4062q1.9844 0 2.9531 0.34375 0.98438 0.32813 1.6719 1.2188 0.70312 0.875 0.70312 2.1094 0 1-0.42187 1.7344-0.40625 0.73438-1.2188 1.2188 0.96875 0.32813 1.6094 1.2188 0.65625 0.89063 0.65625 2.125-0.14062 1.9531-1.4219 2.9062-1.2656 0.95313-3.7031 0.95313h-6.2344zm2.3438 5.8281h2.5q1.5 0 2.0625-0.15625t1-0.625q0.4375-0.48438 0.4375-1.1562 0-1.0938-0.78125-1.5156-0.76563-0.4375-2.6406-0.4375h-2.5781zm0 6.0781h3.0938q1.9844 0 2.7188-0.45312 0.75-0.46875 0.79687-1.6094 0-0.65625-0.4375-1.2188-0.42187-0.57812-1.125-0.71875-0.6875-0.15625-2.2031-0.15625h-2.8438zm20.971-2.5312 2.4219 0.29688q-0.57813 2.125-2.125 3.2969-1.5469 1.1719-3.9531 1.1719-3.0312 0-4.8125-1.8594-1.7812-1.875-1.7812-5.25 0-3.4844 1.7969-5.4062 1.7969-1.9375 4.6719-1.9375 2.7656 0 4.5156 1.8906 1.7656 1.8906 1.7656 5.3125 0 0.20312-0.0156 0.625h-10.312q0.14062 2.2812 1.2969 3.5 1.1562 1.2031 2.8906 1.2031 1.2812 0 2.1875-0.67187 0.92187-0.6875 1.4531-2.1719zm-7.6875-3.7812h7.7188q-0.15625-1.75-0.89062-2.625-1.125-1.3438-2.9062-1.3438-1.6094 0-2.7188 1.0781-1.0938 1.0781-1.2031 2.8906zm13.044 13.531v-19.125h2.1406v1.7969q0.75-1.0469 1.7031-1.5781 0.95312-0.53125 2.3125-0.53125 1.7656 0 3.1094 0.92188 1.3594 0.90625 2.0469 2.5625t0.6875 3.6406q0 2.125-0.76563 3.8281-0.75 1.6875-2.2031 2.5938-1.4531 0.90625-3.0469 0.90625-1.1719 0-2.1094-0.48438-0.92188-0.5-1.5312-1.2656v6.7344zm2.125-12.125q0 2.6562 1.0781 3.9375 1.0938 1.2812 2.625 1.2812 1.5625 0 2.6719-1.3125 1.1094-1.3281 1.1094-4.1094 0-2.6406-1.0938-3.9531-1.0781-1.3125-2.5938-1.3125-1.4844 0-2.6406 1.4062-1.1562 1.3906-1.1562 4.0625zm12.778-7h2.3438v11.891h5.3438v-11.891h2.3438v11.891h5.3438v-11.891h2.3281v13.828h-17.703zm30.776 9.375 2.4219 0.29688q-0.57813 2.125-2.125 3.2969-1.5469 1.1719-3.9531 1.1719-3.0312 0-4.8125-1.8594-1.7812-1.875-1.7812-5.25 0-3.4844 1.7969-5.4062 1.7969-1.9375 4.6719-1.9375 2.7656 0 4.5156 1.8906 1.7656 1.8906 1.7656 5.3125 0 0.20312-0.0156 0.625h-10.312q0.14062 2.2812 1.2969 3.5 1.1562 1.2031 2.8906 1.2031 1.2812 0 2.1875-0.67187 0.92187-0.6875 1.4531-2.1719zm-7.6875-3.7812h7.7188q-0.15625-1.75-0.89062-2.625-1.125-1.3438-2.9062-1.3438-1.6094 0-2.7188 1.0781-1.0938 1.0781-1.2031 2.8906zm13.059-5.5938h2.3438v5.7656h6.5v-5.7656h2.3438v13.828h-2.3438v-6.125h-6.5v6.125h-2.3438zm14.705 0h2.3438v10.547l6.5-10.547h2.5312v13.828h-2.3438v-10.484l-6.5 10.484h-2.5312zm24.359 9.375 2.4219 0.29688q-0.57813 2.125-2.125 3.2969-1.5469 1.1719-3.9531 1.1719-3.0312 0-4.8125-1.8594-1.7812-1.875-1.7812-5.25 0-3.4844 1.7969-5.4062 1.7969-1.9375 4.6719-1.9375 2.7656 0 4.5156 1.8906 1.7656 1.8906 1.7656 5.3125 0 0.20312-0.0156 0.625h-10.312q0.14062 2.2812 1.2969 3.5 1.1562 1.2031 2.8906 1.2031 1.2812 0 2.1875-0.67187 0.92187-0.6875 1.4531-2.1719zm-7.6875-3.7812h7.7188q-0.15625-1.75-0.89062-2.625-1.125-1.3438-2.9062-1.3438-1.6094 0-2.7188 1.0781-1.0938 1.0781-1.2031 2.8906zm20.45 13.531v-19.125h2.1406v1.7969q0.75-1.0469 1.7031-1.5781 0.95313-0.53125 2.3125-0.53125 1.7656 0 3.1094 0.92188 1.3594 0.90625 2.0469 2.5625t0.6875 3.6406q0 2.125-0.76562 3.8281-0.75 1.6875-2.2031 2.5938-1.4531 0.90625-3.0469 0.90625-1.1719 0-2.1094-0.48438-0.92187-0.5-1.5312-1.2656v6.7344zm2.125-12.125q0 2.6562 1.0781 3.9375 1.0938 1.2812 2.625 1.2812 1.5625 0 2.6719-1.3125 1.1094-1.3281 1.1094-4.1094 0-2.6406-1.0938-3.9531-1.0781-1.3125-2.5938-1.3125-1.4844 0-2.6406 1.4062-1.1562 1.3906-1.1562 4.0625zm21.731 5.125q-1.3125 1.1094-2.5156 1.5625-1.2031 0.45313-2.5781 0.45313-2.2812 0-3.5-1.1094-1.2188-1.1094-1.2188-2.8438 0-1.0156 0.45313-1.8594 0.46875-0.84375 1.2188-1.3438 0.75-0.51563 1.6875-0.76563 0.6875-0.1875 2.0781-0.35937 2.8281-0.32813 4.1719-0.79688 0.0156-0.48437 0.0156-0.625 0-1.4219-0.65625-2.0156-0.90625-0.79688-2.6719-0.79688-1.6562 0-2.4531 0.59375-0.78125 0.57813-1.1562 2.0469l-2.2969-0.3125q0.3125-1.4688 1.0312-2.375t2.0625-1.3906q1.3594-0.5 3.1406-0.5t2.875 0.42188q1.1094 0.42187 1.625 1.0469 0.53125 0.625 0.73438 1.5938 0.125 0.59375 0.125 2.1562v3.125q0 3.2656 0.14062 4.1406 0.15625 0.85937 0.59375 1.6562h-2.4375q-0.375-0.73438-0.46875-1.7031zm-0.20312-5.2344q-1.2656 0.51562-3.8281 0.89062-1.4375 0.20313-2.0469 0.46875-0.59375 0.25-0.92188 0.75-0.3125 0.5-0.3125 1.125 0 0.9375 0.70313 1.5625 0.70312 0.625 2.0781 0.625 1.3438 0 2.3906-0.59375 1.0625-0.59375 1.5625-1.625 0.375-0.79687 0.375-2.3438zm16.137-12.594 2.0625 0.0156q-0.1406 1.3906-0.625 1.9375-0.4688 0.54688-1.2188 0.70313t-2.9375 0.15625q-2.8906 0-3.9531 0.5625-1.0469 0.5625-1.5156 1.7969-0.4688 1.2188-0.5156 3.1719 0.8906-1.3281 2.0625-1.9844 1.1875-0.65625 2.6718-0.65625 2.7188 0 4.5 1.875 1.7969 1.8594 1.7969 5.0625 0 2.4062-0.9062 3.9688-0.8907 1.5469-2.125 2.3906-1.2344 0.84375-3.3594 0.84375-2.4531 0-3.8281-1.125-1.3594-1.125-2.0938-2.875-0.71875-1.7656-0.71875-6.125 0-5.4844 1.8437-7.375 1.8594-1.9062 5.7188-1.9062 2.3906 0 2.7187-0.0781t0.4219-0.35937zm-0.125 12.562q0-2.1562-1.0313-3.5312-1.0156-1.3906-2.875-1.3906-1.9375 0-3 1.4688-1.0468 1.4531-1.0468 3.8906 0 2.4062 1.1562 3.6875 1.1719 1.2656 2.875 1.2656 1.75 0 2.8281-1.4688 1.0938-1.4844 1.0938-3.9219zm4.3925 0.0625q0-3.8438 2.125-5.6875 1.7812-1.5469 4.3437-1.5469 2.8594 0 4.6563 1.875 1.8125 1.8594 1.8125 5.1562 0 2.6719-0.7969 4.2031t-2.3281 2.375q-1.5313 0.84375-3.3438 0.84375-2.8906 0-4.6875-1.8594-1.7812-1.8594-1.7812-5.3594zm2.4062 0q0 2.6562 1.1563 3.9844 1.1562 1.3125 2.9062 1.3125t2.9063-1.3281q1.1562-1.3281 1.1562-4.0469 0-2.5625-1.1719-3.8906-1.1562-1.3281-2.8906-1.3281-1.75 0-2.9062 1.3281-1.1563 1.3125-1.1563 3.9688zm11.442-6.9219h11.234v1.9375h-4.4531v11.891h-2.3281v-11.891h-4.4532zm26.631 0h2.3437v13.828h-2.3437zm-13.109 0h2.3437v5.4062h2.9688q2.8906 0 4.4531 1.125 1.5781 1.125 1.5781 3.1094 0 1.7344-1.3125 2.9688-1.2968 1.2188-4.1718 1.2188h-5.8594zm2.3437 11.906h2.4532q2.2343 0 3.1718-0.54687 0.9532-0.54688 0.9532-1.7031 0-0.90625-0.7032-1.6094-0.7031-0.70313-3.1093-0.70313h-2.7657z" fill="#0c0910"/>
 </g>
</svg>
